<svg width="153" height="36" fill="none" xmlns="http://www.w3.org/2000/svg"><g clip-path="url(#clip0)" fill="#fff"><path d="M19.098 5.6c0-.6-.5-1.1-1.1-1.1-.6 0-1.1.5-1.1 1.1v6.8c0 4.5-4.5 4.5-4.5 4.5V5.6c0-3.1 2.5-5.6 5.6-5.6 3.1 0 5.6 2.5 5.6 5.6h-4.5z"/><path d="M18 11.3h11s-.1-4.5-4.5-4.5H18v4.5zM5.6 16.9c-.6 0-1.1.5-1.1 1.1 0 .6.5 1.1 1.1 1.1h6.8c4.5 0 4.5 4.5 4.5 4.5H5.6C2.5 23.7 0 21.2 0 18c0-3.2 2.5-5.6 5.6-5.6v4.5z"/><path d="M11.3 18V7s-4.5.1-4.5 4.5V18h4.5zm19.102 1.2c.6 0 1.1-.5 1.1-1.1 0-.6-.5-1.1-1.1-1.1h-6.8c-4.5 0-4.5-4.5-4.5-4.5h11.3c3.1 0 5.6 2.5 5.6 5.6 0 3.1-2.5 5.6-5.6 5.6v-4.5z"/><path d="M24.802 18.1v11s4.5-.1 4.5-4.5v-6.5h-4.5zm-7.904 12.3c0 .6.5 1.1 1.1 1.1.6 0 1.1-.5 1.1-1.1v-6.8c0-4.5 4.5-4.5 4.5-4.5v11.3c0 3.1-2.5 5.6-5.6 5.6-3.1 0-5.6-2.5-5.6-5.6h4.5z"/><path d="M18 24.8H7s.1 4.5 4.5 4.5H18v-4.5zm36.2-10H59c.2-.3.5-.5.6-.7.2-.2.3-.3.5-.3s.7.2 1.3.7c.7.5 1 .8 1 1 0 .1-.1.3-.4.5-.3.2-.4.3-.5.5v2.1c0 .2-.2.3-.6.5.4.3.8.5 1.2.8.5.3.7.5.7.7 0 .2-.1.3-.3.3l-.9-.1c-.5.2-1 .5-1.8.7.1.1.1.1.2.1.9.4 1.6.8 2 1.3.3.4.5.8.5 1.2 0 .3-.1.5-.3.7-.2.3-.4.3-.6.3-.3 0-1-.5-1.9-1.6-.9-1-2.1-1.9-3.6-2.6l.2-.3c1.1.2 2 .5 2.8.7.2-.2.4-.5.6-.7.3-.4.6-.8.8-1.3-.3-.3-.4-.3-.6-.3-.4 0-.6-.1-.6-.5v-.4h-1.8c-.8.9-1.6 1.6-2.2 2v2.4c.8-.1 1.5-.3 2.3-.5l.1.3c-1.4 1.2-3 2-4.6 2.4-.2.1-.3.1-.3.2-.1.1-.1.1-.1.2v.1c1.2.1 2.7.1 4.8.1 1.9 0 4-.1 6.3-.4l.1.4c-.5.1-1 .6-1.3 1.5-.1.4-.2.6-.3.6H57c-1.2 0-2.8-.1-4.7-.2-1.9-.4-3.2-1.2-4-2.6-.1 0-.1.1-.2.2-.5.8-1 1.5-1.6 2.2 0 .5-.1.8-.3.8-.1 0-.3-.2-.4-.5-.4-.7-.8-1.5-1.2-2.5.9-.1 1.6-.3 2.1-.4V19c-.8 0-1.5.1-1.9.2l-.3-1c.5.2 1.2.3 1.8.3.3-.2.5-.5.7-.7.3-.3.5-.5.7-.5.2 0 .6.3 1.1.7.6.5.9.8.9.9 0 .2-.1.4-.4.5-.3.2-.3.4-.3.6v3.7c.6.8 1.4 1.2 2.4 1.3.3.1.7.1 1.1.1-.2-.2-.4-.6-.5-1-.1-.2-.3-.6-.5-1.2.7-.1 1.4-.1 2.1-.2V21c-.1.1-.3.1-.4.2-.9.3-1.9.7-3 .9l-.2-.3c1-.4 2-1 2.9-1.6.8-.6 1.5-1.3 2.1-2.1h-.9v.3c0 .3-.3.5-1 .6-.3.1-.5.1-.6.1-.5 0-.7-.2-.7-.6.1-.4.1-.8.1-1.3v-1.6c0-.5-.1-1-.2-1.7.8.2 1.6.5 2.5.9zm-6.2-.9c.5.3.8.7.8 1.1 0 .4-.2.8-.5 1.1-.2.3-.5.3-.9.3-.3 0-.6-.3-.9-.8-.3-.8-.9-1.6-1.7-2.3l.2-.3c1.4.3 2.5.6 3 .9zm.8-3.8c.5.3.7.6.7 1s-.2.8-.5 1.1c-.2.3-.5.4-.9.4-.3 0-.6-.3-.8-.8-.3-.8-.8-1.4-1.6-2.2l.2-.3c1.3.2 2.3.5 2.9.8zm5 .5h1.5v-.3c0-.6-.1-1.2-.2-1.8l2.7.3c.5.1.8.2.8.4 0 .1-.2.2-.5.4s-.5.4-.5.6v.4h1.2c.1 0 .3-.2.6-.7.5-.5.7-.8.8-.8.2 0 .5.3 1 .8s.7.8.7 1c0 .2-.1.3-.3.3h-4V13h2.5c.1 0 .2-.3.6-.7.4-.5.7-.8.8-.8.2 0 .6.3 1.1.8.5.5.8.9.8 1 0 .2-.1.3-.3.3h-9.8c-1.2 0-2.1.1-2.5.1l-.3-.8c.7.1 1.6.1 2.9.1h2v-1.8h-1.5c-1.2 0-2.1.1-2.5.1l-.4-.9c.6.1 1.6.2 2.8.2zm5.6 6.9v-2.1H54v2.1h5.4zm17.9-6.4h5c0-1-.1-1.9-.1-2.7.7.1 1.5.2 2.5.4.7.1 1.1.3 1.1.5s-.2.4-.7.5c-.3.1-.5.3-.5.5v.8H89c.1 0 .3-.3.8-.9.5-.7.8-1 .9-1 .3 0 .7.3 1.3 1 .6.6.9 1 .9 1.2 0 .2-.1.3-.4.3h-7.8v2.1h2.8c.3-.4.6-.7.9-1 .2-.3.4-.4.6-.4.2 0 .6.2 1.2.6.8.5 1.2.9 1.2 1 0 .2-.2.4-.5.6-.2.2-.3.4-.3.6V18c0 .7 0 1.6.1 2.7 0 .3-.4.5-1.1.6-.3.1-.6.1-.7.1-.4 0-.6-.2-.6-.7v-.5H85c1.2 1.2 2.5 2 3.8 2.6 1.5.7 3 1.1 4.5 1.4l-.1.5c-.6.2-1 .6-1.2 1.2-.1.5-.3.7-.5.7-.3 0-.9-.3-2-.9-1-.6-2.1-1.4-3-2.4-.8-.8-1.4-1.6-2-2.4v2.5c0 1.3 0 2.5.1 3.8 0 .3-.4.5-1.1.6-.3.1-.5.1-.7.1-.5 0-.8-.2-.8-.7.1-1.4.2-2.7.2-3.8V22c-.5.6-1 1-1.4 1.4-.9.7-1.9 1.4-3.1 1.9-1.2.5-2.4 1-3.8 1.4l-.1-.3c1.4-.7 2.8-1.6 4.1-2.6 1.2-1 2.3-2.3 3.1-3.6h-2.2v.6c0 .3-.3.5-1 .6-.3.1-.5.1-.7.1-.5 0-.7-.2-.7-.7.1-.8.1-1.5.1-2.3v-2.7c0-1-.1-2.1-.1-3.1 1 .3 2 .6 3 1h3v-2.1h-5c-1.2 0-2.1.1-2.5.1l-.3-.8c.5.1 1.4.2 2.7.2zm5.1 5.6v-2.3h-3.5v2.3h3.5zm0 2.9v-2.3h-3.5v2.3h3.5zm2.3-2.9h3.6v-2.3h-3.6v2.3zm0 2.9h3.6v-2.3h-3.6v2.3zm29.5-10.8c.5.1.8.2.8.4 0 .1-.2.2-.5.3-.3.1-.5.3-.5.5v1h4.6c.1 0 .3-.3.7-.9.5-.7.8-1 .9-1 .3 0 .7.3 1.3 1 .6.6.9 1 .9 1.2 0 .2-.1.3-.4.3h-5.9c.2.1.5.1.7.2.6.2.9.3.9.5s-.2.3-.5.4c-.3.1-.5.1-.6.2-.3.5-.5 1-.9 1.4l-.6.6h3.2l.5-.5c.4-.3.7-.5.8-.5.2 0 .7.3 1.3.7.6.5 1 .8 1 1 0 .2-.2.3-.5.6-.4.3-.6.5-.6.8v8.6c0 .7-.4 1.2-1.2 1.6-.7.3-1.2.5-1.6.5-.2 0-.3-.3-.4-.8-.2-.6-.8-1.2-1.9-1.6v-.1c-.3.1-.5.1-.6.1-.4 0-.6-.2-.6-.6v-.3h-3.7v.8c0 .3-.3.5-1 .6-.3.1-.5.1-.6.1-.5 0-.7-.2-.7-.7.1-.7.1-1.3.1-2v-1c0-.8-.1-1.6-.1-2.4-.3.1-.7.2-1 .3l-.3-.2c.4-.2.8-.4 1.1-.8.3-.3.6-.6.8-.9.2-.5.3-1 .3-1.7v-.9H107v11.7c0 .3-.3.5-1 .6-.3.1-.5.1-.6.1-.5 0-.8-.2-.8-.7.1-1.5.2-2.8.2-4v-5.6c0-1-.1-2.2-.2-3.6.9.2 1.8.5 2.5.9h2.5c-.1-.3-.2-.6-.4-1.1-.3-.8-.6-1.5-1-2.1l.1-.1H106c-1.2 0-2.1.1-2.5.1l-.3-.8c.7.1 1.6.2 2.9.2h5.6v-.8c0-.6-.1-1.2-.2-1.8 1-.1 1.9.1 2.7.2zm-.3 11.4c.3-.3.6-.5.8-.8.2-.2.4-.3.6-.3.2 0 .5.2 1.2.6.7.5 1 .8 1 1 0 .2-.1.4-.4.5-.2.2-.3.4-.3.6v.3c0 .6 0 1.4.1 2.4 0 .1-.1.3-.2.3.6.1 1.1.1 1.5.1.4 0 .6-.2.6-.7v-5.7c-.5.2-1.1.3-2 .3h-1c-.4 0-.7 0-1-.1-.6-.1-.9-.5-.9-1v-2.4h-2.1v.9c0 .7-.2 1.3-.5 1.8-.3.4-.8.8-1.4 1l-.6.3c.7.2 1.3.5 2 .8l2.6.1zm.5-5.3c.2-.5.3-1.1.4-1.6.1-.5.2-1.1.2-1.8h-5.3c.2.1.3.2.5.3.4.3.7.5.9.8.2.3.3.5.3.8 0 .4-.2.8-.5 1.1-.1.1-.2.3-.3.3l3.8.1zm.3 8.9v-3H111v3h3.7zm.9-7c0 .3.1.5.3.6.2.1.5.1.8.1.3 0 .5-.1.6-.2.1-.2.1-.6.3-1.4h.3l.1 1c0 .2.2.3.6.5.1 0 .1.1.1.1v-1.9h-3.1v1.2zm22.6-7.9c.7.2 1 .4 1 .5 0 .2-.2.3-.6.3-.3.1-.5.1-.6.2 1.2.3 2.1.7 2.7 1.1.6.5.9 1 .9 1.7 0 .3-.1.5-.3.8-.2.2-.3.2-.6.2-.5 0-1-.3-1.4-1-.3-.7-.9-1.4-1.7-2.1-.5.9-1.1 1.6-1.7 2.2-.4.5-.9.9-1.4 1.3.6.1 1.4.1 2.3.1h.9s.2-.2.5-.6c.3-.5.6-.7.7-.7.2 0 .5.2.9.7.4.5.6.7.6.8 0 .2-.1.3-.2.3h-2.3v2.8h.6c.1 0 .2-.2.5-.6.3-.5.5-.7.6-.7.2 0 .5.2.9.7.4.5.7.7.7.8 0 .2-.1.3-.3.3h-3.1v5.5c1.1-.2 2.1-.4 3.2-.7l.2.3c-2 1.5-4.1 2.6-6.4 3.3-.3 0-.3.1-.3.3-.1.1-.1.2-.1.3-.1.2-.1.3-.2.3-.3 0-.7-.5-1.1-1.6-.1-.3-.3-.8-.6-1.4 1.1-.1 2.2-.2 3.3-.4V18h-.3c-1.2 0-2.1.1-2.5.1l-.3-.8c.7.1 1.6.2 2.9.2h.3v-2.8c-.7 0-1.2.1-1.6.1l-.2-.4c-.5.3-1 .7-1.5 1l-.1-.3c.6-.7 1.4-1.7 2.1-2.9.6-1 1.2-2.3 1.6-3.8.8.2 1.4.4 2 .5zM135 20.7c.3.5.5 1 .5 1.5s-.1.9-.3 1c-.3.3-.6.5-.9.5-.2 0-.4-.1-.5-.3-.1-.1-.2-.6-.2-1.3 0-.8-.1-1.7-.3-2.8l.2-.1c.7.4 1.2.9 1.5 1.5zm5.8-1.3c.5.2.8.5.8.7 0 .1-.1.2-.4.2-.3.1-.5.1-.5.1-.6 1-1.3 1.9-2.1 2.7l-.3-.3c.3-1.2.5-2.6.7-4l1.8.6zm3.5-9.5h3.1c.3-.3.6-.7.9-1 .2-.2.4-.3.6-.3.2 0 .6.2 1.2.6.7.5 1.1.9 1.1 1 0 .2-.2.4-.5.6-.3.2-.3.4-.3.6v3.8c0 .7 0 1.6.1 2.7 0 .3-.3.4-.9.5.5.3 1 .7 1.5 1 .5.4.8.7.8.9 0 .2-.1.3-.3.3l-1.2-.2c-.6.5-1.4.9-2.5 1.4.1.2.2.3.3.4.4.6.9 1.1 1.6 1.5.6.4 1.3.8 2.3 1.1l-.1.5c-.6.1-1.1.5-1.4 1.2-.2.5-.4.8-.5.8-.1 0-.5-.2-.9-.7-.5-.5-1-1.2-1.4-2.1l-.3-.6c-1.6 1.2-3.2 2-4.9 2.6-.2.1-.3.1-.3.3-.1.1-.1.2-.1.3-.1.2-.1.3-.3.3-.3 0-.7-.5-1.1-1.6-.1-.3-.3-.8-.6-1.4.6-.1 1.2-.1 1.7-.2V13.1c0-1.8-.1-3.1-.3-4 .8.1 1.7.4 2.7.8zm3.8 3.6v-3h-3.9v3h3.9zm0 3.6V14h-3.9v3.1h3.9zm-1.6 4.6c-.3-1-.5-2.3-.7-4h-1.6v6.4c1-.2 2-.4 2.8-.6-.2-.6-.4-1.2-.5-1.8zm.5-1.8c.2.6.5 1.2.7 1.6.2-.3.4-.6.6-1 .3-.6.6-1.2.8-1.9-.2.1-.4.1-.5.1-.4 0-.6-.2-.6-.7v-.3h-1.7c.2.6.4 1.4.7 2.2z"/></g><defs><clipPath id="clip0"><path fill="#fff" d="M0 0h152.1v36H0z"/></clipPath></defs></svg>