<svg width="153" height="36" viewBox="0 0 153 36" fill="none" xmlns="http://www.w3.org/2000/svg">
<g clip-path="url(#clip0)">
<path d="M19.0984 5.6C19.0984 5 18.5984 4.5 17.9984 4.5C17.3984 4.5 16.8984 5 16.8984 5.6V12.4C16.8984 16.9 12.3984 16.9 12.3984 16.9V5.6C12.3984 2.5 14.8984 0 17.9984 0C21.0984 0 23.5984 2.5 23.5984 5.6H19.0984Z" fill="white"/>
<path d="M18 11.2998H29C29 11.2998 28.9 6.7998 24.5 6.7998H18V11.2998Z" fill="white"/>
<path d="M5.6 16.9C5 16.9 4.5 17.4 4.5 18C4.5 18.6 5 19.1 5.6 19.1H12.4C16.9 19.1 16.9 23.6 16.9 23.6H5.6C2.5 23.7 0 21.2 0 18C0 14.8 2.5 12.4 5.6 12.4V16.9Z" fill="white"/>
<path d="M11.3 18V7C11.3 7 6.79999 7.1 6.79999 11.5V18H11.3Z" fill="white"/>
<path d="M30.4016 19.2C31.0016 19.2 31.5016 18.7 31.5016 18.1C31.5016 17.5 31.0016 17 30.4016 17H23.6016C19.1016 17 19.1016 12.5 19.1016 12.5H30.4016C33.5016 12.5 36.0016 15 36.0016 18.1C36.0016 21.2 33.5016 23.7 30.4016 23.7V19.2Z" fill="white"/>
<path d="M24.8016 18.1V29.1C24.8016 29.1 29.3016 29 29.3016 24.6V18.1H24.8016Z" fill="white"/>
<path d="M16.8984 30.4C16.8984 31 17.3984 31.5 17.9984 31.5C18.5984 31.5 19.0984 31 19.0984 30.4V23.6C19.0984 19.1 23.5984 19.1 23.5984 19.1V30.4C23.5984 33.5 21.0984 36 17.9984 36C14.8984 36 12.3984 33.5 12.3984 30.4H16.8984Z" fill="white"/>
<path d="M18 24.7999H7C7 24.7999 7.1 29.2999 11.5 29.2999H18V24.7999Z" fill="white"/>
<path d="M54.2 14.8H59C59.2 14.5 59.5 14.3 59.6 14.1C59.8 13.9 59.9 13.8 60.1 13.8C60.3 13.8 60.8 14 61.4 14.5C62.1 15 62.4 15.3 62.4 15.5C62.4 15.6 62.3 15.8 62 16C61.7 16.2 61.6 16.3 61.5 16.5V18.6C61.5 18.8 61.3 18.9 60.9 19.1C61.3 19.4 61.7 19.6 62.1 19.9C62.6 20.2 62.8 20.4 62.8 20.6C62.8 20.8 62.7 20.9 62.5 20.9L61.6 20.8C61.1 21 60.6 21.3 59.8 21.5C59.9 21.6 59.9 21.6 60 21.6C60.9 22 61.6 22.4 62 22.9C62.3 23.3 62.5 23.7 62.5 24.1C62.5 24.4 62.4 24.6 62.2 24.8C62 25.1 61.8 25.1 61.6 25.1C61.3 25.1 60.6 24.6 59.7 23.5C58.8 22.5 57.6 21.6 56.1 20.9L56.3 20.6C57.4 20.8 58.3 21.1 59.1 21.3C59.3 21.1 59.5 20.8 59.7 20.6C60 20.2 60.3 19.8 60.5 19.3C60.2 19 60.1 19 59.9 19C59.5 19 59.3 18.9 59.3 18.5V18.1H57.5C56.7 19 55.9 19.7 55.3 20.1V22.5C56.1 22.4 56.8 22.2 57.6 22L57.7 22.3C56.3 23.5 54.7 24.3 53.1 24.7C52.9 24.8 52.8 24.8 52.8 24.9C52.7 25 52.7 25 52.7 25.1C52.7 25.2 52.7 25.2 52.7 25.2C53.9 25.3 55.4 25.3 57.5 25.3C59.4 25.3 61.5 25.2 63.8 24.9L63.9 25.3C63.4 25.4 62.9 25.9 62.6 26.8C62.5 27.2 62.4 27.4 62.3 27.4H57C55.8 27.4 54.2 27.3 52.3 27.2C50.4 26.8 49.1 26 48.3 24.6C48.2 24.6 48.2 24.7 48.1 24.8C47.6 25.6 47.1 26.3 46.5 27C46.5 27.5 46.4 27.8 46.2 27.8C46.1 27.8 45.9 27.6 45.8 27.3C45.4 26.6 45 25.8 44.6 24.8C45.5 24.7 46.2 24.5 46.7 24.4V19C45.9 19 45.2 19.1 44.8 19.2L44.5 18.2C45 18.4 45.7 18.5 46.3 18.5C46.6 18.3 46.8 18 47 17.8C47.3 17.5 47.5 17.3 47.7 17.3C47.9 17.3 48.3 17.6 48.8 18C49.4 18.5 49.7 18.8 49.7 18.9C49.7 19.1 49.6 19.3 49.3 19.4C49 19.6 49 19.8 49 20V23.7C49.6 24.5 50.4 24.9 51.4 25C51.7 25.1 52.1 25.1 52.5 25.1C52.3 24.9 52.1 24.5 52 24.1C51.9 23.9 51.7 23.5 51.5 22.9C52.2 22.8 52.9 22.8 53.6 22.7V21C53.5 21.1 53.3 21.1 53.2 21.2C52.3 21.5 51.3 21.9 50.2 22.1L50 21.8C51 21.4 52 20.8 52.9 20.2C53.7 19.6 54.4 18.9 55 18.1H54.1V18.4C54.1 18.7 53.8 18.9 53.1 19C52.8 19.1 52.6 19.1 52.5 19.1C52 19.1 51.8 18.9 51.8 18.5C51.9 18.1 51.9 17.7 51.9 17.2V15.6C51.9 15.1 51.8 14.6 51.7 13.9C52.5 14.1 53.3 14.4 54.2 14.8ZM48 13.9C48.5 14.2 48.8 14.6 48.8 15C48.8 15.4 48.6 15.8 48.3 16.1C48.1 16.4 47.8 16.4 47.4 16.4C47.1 16.4 46.8 16.1 46.5 15.6C46.2 14.8 45.6 14 44.8 13.3L45 13C46.4 13.3 47.5 13.6 48 13.9ZM48.8 10.1C49.3 10.4 49.5 10.7 49.5 11.1C49.5 11.5 49.3 11.9 49 12.2C48.8 12.5 48.5 12.6 48.1 12.6C47.8 12.6 47.5 12.3 47.3 11.8C47 11 46.5 10.4 45.7 9.6L45.9 9.3C47.2 9.5 48.2 9.8 48.8 10.1ZM53.8 10.6H55.3V10.3C55.3 9.7 55.2 9.1 55.1 8.5C56 8.6 56.9 8.7 57.8 8.8C58.3 8.9 58.6 9 58.6 9.2C58.6 9.3 58.4 9.4 58.1 9.6C57.8 9.8 57.6 10 57.6 10.2V10.6H58.8C58.9 10.6 59.1 10.4 59.4 9.9C59.9 9.4 60.1 9.1 60.2 9.1C60.4 9.1 60.7 9.4 61.2 9.9C61.7 10.4 61.9 10.7 61.9 10.9C61.9 11.1 61.8 11.2 61.6 11.2H57.6V13H60.1C60.2 13 60.3 12.7 60.7 12.3C61.1 11.8 61.4 11.5 61.5 11.5C61.7 11.5 62.1 11.8 62.6 12.3C63.1 12.8 63.4 13.2 63.4 13.3C63.4 13.5 63.3 13.6 63.1 13.6H53.3C52.1 13.6 51.2 13.7 50.8 13.7L50.5 12.9C51.2 13 52.1 13 53.4 13H55.4V11.2H53.9C52.7 11.2 51.8 11.3 51.4 11.3L51 10.4C51.6 10.5 52.6 10.6 53.8 10.6ZM59.4 17.5V15.4H54V17.5H59.4Z" fill="white"/>
<path d="M77.3 11.1H82.3C82.3 10.1 82.2 9.20002 82.2 8.40002C82.9 8.50002 83.7 8.60002 84.7 8.80002C85.4 8.90003 85.8 9.10002 85.8 9.30002C85.8 9.50003 85.6 9.70002 85.1 9.80002C84.8 9.90003 84.6 10.1 84.6 10.3V11.1H89C89.1 11.1 89.3 10.8 89.8 10.2C90.3 9.50002 90.6 9.20002 90.7 9.20002C91 9.20002 91.4 9.50002 92 10.2C92.6 10.8 92.9 11.2 92.9 11.4C92.9 11.6 92.8 11.7 92.5 11.7H84.7V13.8H87.5C87.8 13.4 88.1 13.1 88.4 12.8C88.6 12.5 88.8 12.4 89 12.4C89.2 12.4 89.6 12.6 90.2 13C91 13.5 91.4 13.9 91.4 14C91.4 14.2 91.2 14.4 90.9 14.6C90.7 14.8 90.6 15 90.6 15.2V18C90.6 18.7 90.6 19.6 90.7 20.7C90.7 21 90.3 21.2 89.6 21.3C89.3 21.4 89 21.4 88.9 21.4C88.5 21.4 88.3 21.2 88.3 20.7V20.2H85C86.2 21.4 87.5 22.2 88.8 22.8C90.3 23.5 91.8 23.9 93.3 24.2L93.2 24.7C92.6 24.9 92.2 25.3 92 25.9C91.9 26.4 91.7 26.6 91.5 26.6C91.2 26.6 90.6 26.3 89.5 25.7C88.5 25.1 87.4 24.3 86.5 23.3C85.7 22.5 85.1 21.7 84.5 20.9V23.4C84.5 24.7 84.5 25.9 84.6 27.2C84.6 27.5 84.2 27.7 83.5 27.8C83.2 27.9 83 27.9 82.8 27.9C82.3 27.9 82 27.7 82 27.2C82.1 25.8 82.2 24.5 82.2 23.4V22C81.7 22.6 81.2 23 80.8 23.4C79.9 24.1 78.9 24.8 77.7 25.3C76.5 25.8 75.3 26.3 73.9 26.7L73.8 26.4C75.2 25.7 76.6 24.8 77.9 23.8C79.1 22.8 80.2 21.5 81 20.2H78.8V20.8C78.8 21.1 78.5 21.3 77.8 21.4C77.5 21.5 77.3 21.5 77.1 21.5C76.6 21.5 76.4 21.3 76.4 20.8C76.5 20 76.5 19.3 76.5 18.5V15.8C76.5 14.8 76.4 13.7 76.4 12.7C77.4 13 78.4 13.3 79.4 13.7H82.4V11.6H77.4C76.2 11.6 75.3 11.7 74.9 11.7L74.6 10.9C75.1 11 76 11.1 77.3 11.1ZM82.4 16.7V14.4H78.9V16.7H82.4ZM82.4 19.6V17.3H78.9V19.6H82.4ZM84.7 16.7H88.3V14.4H84.7V16.7ZM84.7 19.6H88.3V17.3H84.7V19.6Z" fill="white"/>
<path d="M114.2 8.80001C114.7 8.90001 115 9.00001 115 9.20001C115 9.30001 114.8 9.40001 114.5 9.50001C114.2 9.60001 114 9.80001 114 10V11H118.6C118.7 11 118.9 10.7 119.3 10.1C119.8 9.40001 120.1 9.10001 120.2 9.10001C120.5 9.10001 120.9 9.40001 121.5 10.1C122.1 10.7 122.4 11.1 122.4 11.3C122.4 11.5 122.3 11.6 122 11.6H116.1C116.3 11.7 116.6 11.7 116.8 11.8C117.4 12 117.7 12.1 117.7 12.3C117.7 12.5 117.5 12.6 117.2 12.7C116.9 12.8 116.7 12.8 116.6 12.9C116.3 13.4 116.1 13.9 115.7 14.3C115.5 14.5 115.3 14.7 115.1 14.9H118.3C118.5 14.7 118.6 14.6 118.8 14.4C119.2 14.1 119.5 13.9 119.6 13.9C119.8 13.9 120.3 14.2 120.9 14.6C121.5 15.1 121.9 15.4 121.9 15.6C121.9 15.8 121.7 15.9 121.4 16.2C121 16.5 120.8 16.7 120.8 17V25.6C120.8 26.3 120.4 26.8 119.6 27.2C118.9 27.5 118.4 27.7 118 27.7C117.8 27.7 117.7 27.4 117.6 26.9C117.4 26.3 116.8 25.7 115.7 25.3V25.2C115.4 25.3 115.2 25.3 115.1 25.3C114.7 25.3 114.5 25.1 114.5 24.7V24.4H110.8V25.2C110.8 25.5 110.5 25.7 109.8 25.8C109.5 25.9 109.3 25.9 109.2 25.9C108.7 25.9 108.5 25.7 108.5 25.2C108.6 24.5 108.6 23.9 108.6 23.2V22.2C108.6 21.4 108.5 20.6 108.5 19.8C108.2 19.9 107.8 20 107.5 20.1L107.2 19.9C107.6 19.7 108 19.5 108.3 19.1C108.6 18.8 108.9 18.5 109.1 18.2C109.3 17.7 109.4 17.2 109.4 16.5V15.6H107V27.3C107 27.6 106.7 27.8 106 27.9C105.7 28 105.5 28 105.4 28C104.9 28 104.6 27.8 104.6 27.3C104.7 25.8 104.8 24.5 104.8 23.3V17.7C104.8 16.7 104.7 15.5 104.6 14.1C105.5 14.3 106.4 14.6 107.1 15H109.6C109.5 14.7 109.4 14.4 109.2 13.9C108.9 13.1 108.6 12.4 108.2 11.8L108.3 11.7H106C104.8 11.7 103.9 11.8 103.5 11.8L103.2 11C103.9 11.1 104.8 11.2 106.1 11.2H111.7V10.4C111.7 9.80001 111.6 9.20001 111.5 8.60001C112.5 8.50001 113.4 8.70001 114.2 8.80001ZM113.9 20.2C114.2 19.9 114.5 19.7 114.7 19.4C114.9 19.2 115.1 19.1 115.3 19.1C115.5 19.1 115.8 19.3 116.5 19.7C117.2 20.2 117.5 20.5 117.5 20.7C117.5 20.9 117.4 21.1 117.1 21.2C116.9 21.4 116.8 21.6 116.8 21.8V22.1C116.8 22.7 116.8 23.5 116.9 24.5C116.9 24.6 116.8 24.8 116.7 24.8C117.3 24.9 117.8 24.9 118.2 24.9C118.6 24.9 118.8 24.7 118.8 24.2V18.5C118.3 18.7 117.7 18.8 116.8 18.8H115.8C115.4 18.8 115.1 18.8 114.8 18.7C114.2 18.6 113.9 18.2 113.9 17.7V15.3H111.8V16.2C111.8 16.9 111.6 17.5 111.3 18C111 18.4 110.5 18.8 109.9 19C109.7 19.1 109.5 19.2 109.3 19.3C110 19.5 110.6 19.8 111.3 20.1L113.9 20.2ZM114.4 14.9C114.6 14.4 114.7 13.8 114.8 13.3C114.9 12.8 115 12.2 115 11.5H109.7C109.9 11.6 110 11.7 110.2 11.8C110.6 12.1 110.9 12.3 111.1 12.6C111.3 12.9 111.4 13.1 111.4 13.4C111.4 13.8 111.2 14.2 110.9 14.5C110.8 14.6 110.7 14.8 110.6 14.8L114.4 14.9ZM114.7 23.8V20.8H111V23.8H114.7ZM115.6 16.8C115.6 17.1 115.7 17.3 115.9 17.4C116.1 17.5 116.4 17.5 116.7 17.5C117 17.5 117.2 17.4 117.3 17.3C117.4 17.1 117.4 16.7 117.6 15.9H117.9L118 16.9C118 17.1 118.2 17.2 118.6 17.4C118.7 17.4 118.7 17.5 118.7 17.5V15.6H115.6V16.8Z" fill="white"/>
<path d="M138.2 8.90002C138.9 9.10002 139.2 9.30002 139.2 9.40002C139.2 9.60002 139 9.70002 138.6 9.70002C138.3 9.80002 138.1 9.80002 138 9.90002C139.2 10.2 140.1 10.6 140.7 11C141.3 11.5 141.6 12 141.6 12.7C141.6 13 141.5 13.2 141.3 13.5C141.1 13.7 141 13.7 140.7 13.7C140.2 13.7 139.7 13.4 139.3 12.7C139 12 138.4 11.3 137.6 10.6C137.1 11.5 136.5 12.2 135.9 12.8C135.5 13.3 135 13.7 134.5 14.1C135.1 14.2 135.9 14.2 136.8 14.2H137.7C137.7 14.2 137.9 14 138.2 13.6C138.5 13.1 138.8 12.9 138.9 12.9C139.1 12.9 139.4 13.1 139.8 13.6C140.2 14.1 140.4 14.3 140.4 14.4C140.4 14.6 140.3 14.7 140.2 14.7H137.9V17.5H138.5C138.6 17.5 138.7 17.3 139 16.9C139.3 16.4 139.5 16.2 139.6 16.2C139.8 16.2 140.1 16.4 140.5 16.9C140.9 17.4 141.2 17.6 141.2 17.7C141.2 17.9 141.1 18 140.9 18H137.8V23.5C138.9 23.3 139.9 23.1 141 22.8L141.2 23.1C139.2 24.6 137.1 25.7 134.8 26.4C134.5 26.4 134.5 26.5 134.5 26.7C134.4 26.8 134.4 26.9 134.4 27C134.3 27.2 134.3 27.3 134.2 27.3C133.9 27.3 133.5 26.8 133.1 25.7C133 25.4 132.8 24.9 132.5 24.3C133.6 24.2 134.7 24.1 135.8 23.9V18H135.5C134.3 18 133.4 18.1 133 18.1L132.7 17.3C133.4 17.4 134.3 17.5 135.6 17.5H135.9V14.7C135.2 14.7 134.7 14.8 134.3 14.8L134.1 14.4C133.6 14.7 133.1 15.1 132.6 15.4L132.5 15.1C133.1 14.4 133.9 13.4 134.6 12.2C135.2 11.2 135.8 9.90002 136.2 8.40002C137 8.60002 137.6 8.80002 138.2 8.90002ZM135 20.7C135.3 21.2 135.5 21.7 135.5 22.2C135.5 22.7 135.4 23.1 135.2 23.2C134.9 23.5 134.6 23.7 134.3 23.7C134.1 23.7 133.9 23.6 133.8 23.4C133.7 23.3 133.6 22.8 133.6 22.1C133.6 21.3 133.5 20.4 133.3 19.3L133.5 19.2C134.2 19.6 134.7 20.1 135 20.7ZM140.8 19.4C141.3 19.6 141.6 19.9 141.6 20.1C141.6 20.2 141.5 20.3 141.2 20.3C140.9 20.4 140.7 20.4 140.7 20.4C140.1 21.4 139.4 22.3 138.6 23.1L138.3 22.8C138.6 21.6 138.8 20.2 139 18.8C139.6 19 140.2 19.2 140.8 19.4ZM144.3 9.90002H147.4C147.7 9.60002 148 9.20002 148.3 8.90002C148.5 8.70002 148.7 8.60003 148.9 8.60003C149.1 8.60003 149.5 8.80002 150.1 9.20002C150.8 9.70002 151.2 10.1 151.2 10.2C151.2 10.4 151 10.6 150.7 10.8C150.4 11 150.4 11.2 150.4 11.4V15.2C150.4 15.9 150.4 16.8 150.5 17.9C150.5 18.2 150.2 18.3 149.6 18.4C150.1 18.7 150.6 19.1 151.1 19.4C151.6 19.8 151.9 20.1 151.9 20.3C151.9 20.5 151.8 20.6 151.6 20.6L150.4 20.4C149.8 20.9 149 21.3 147.9 21.8C148 22 148.1 22.1 148.2 22.2C148.6 22.8 149.1 23.3 149.8 23.7C150.4 24.1 151.1 24.5 152.1 24.8L152 25.3C151.4 25.4 150.9 25.8 150.6 26.5C150.4 27 150.2 27.3 150.1 27.3C150 27.3 149.6 27.1 149.2 26.6C148.7 26.1 148.2 25.4 147.8 24.5C147.7 24.3 147.6 24.1 147.5 23.9C145.9 25.1 144.3 25.9 142.6 26.5C142.4 26.6 142.3 26.6 142.3 26.8C142.2 26.9 142.2 27 142.2 27.1C142.1 27.3 142.1 27.4 141.9 27.4C141.6 27.4 141.2 26.9 140.8 25.8C140.7 25.5 140.5 25 140.2 24.4C140.8 24.3 141.4 24.3 141.9 24.2V13.1C141.9 11.3 141.8 10 141.6 9.10003C142.4 9.20003 143.3 9.50002 144.3 9.90002ZM148.1 13.5V10.5H144.2V13.5H148.1ZM148.1 17.1V14H144.2V17.1H148.1ZM146.5 21.7C146.2 20.7 146 19.4 145.8 17.7H144.2V24.1C145.2 23.9 146.2 23.7 147 23.5C146.8 22.9 146.6 22.3 146.5 21.7ZM147 19.9C147.2 20.5 147.5 21.1 147.7 21.5C147.9 21.2 148.1 20.9 148.3 20.5C148.6 19.9 148.9 19.3 149.1 18.6C148.9 18.7 148.7 18.7 148.6 18.7C148.2 18.7 148 18.5 148 18V17.7H146.3C146.5 18.3 146.7 19.1 147 19.9Z" fill="white"/>
</g>
<defs>
<clipPath id="clip0">
<rect width="152.1" height="36" fill="white"/>
</clipPath>
</defs>
</svg>
