<svg width="40" height="40" fill="none" xmlns="http://www.w3.org/2000/svg"><path d="M9.571 27.265v7.02c0 2.16-3.51 1.71-3.51 0l.18-12.87-1.35 4.05c-.9 2.43-2.97.9-2.52-.27l1.8-5.85c.63-2.52 3.06-1.17 4.23-1.08.45.09.81.09 1.26.09 3.06 0 3.06-1.44 6.48-3.42 1.8-.99 3.33 1.35 1.35 2.61l-4.59 3.6.18 13.14c0 2.16-3.51 1.71-3.51 0" stroke="#544545" stroke-width="2" stroke-miterlimit="22.926" stroke-linecap="round" stroke-linejoin="round"/><path d="M9.661 10.165c1.71 0 3.06 1.35 3.06 3.06s-1.35 3.06-3.06 3.06-3.06-1.35-3.06-3.06 1.35-3.06 3.06-3.06z" stroke="#544545" stroke-width="2" stroke-miterlimit="22.926" stroke-linecap="round" stroke-linejoin="round"/><path d="M16.325 23.333l5.773-4.315 3.95 1.102 5.975-9.18-3.747.826" stroke="#E60000" stroke-width="2" stroke-miterlimit="22.926" stroke-linecap="round" stroke-linejoin="round"/><path d="M8.401 10.113V5.845h27.753v20.88h-22.72m9.67.001v7.11m0-28.081v-2.25m0 26.911l5.85 5.31m-5.94-5.31l-5.85 5.31" stroke="#544545" stroke-width="2" stroke-miterlimit="22.926" stroke-linecap="round" stroke-linejoin="round"/></svg>