<svg width="40" height="40" fill="none" xmlns="http://www.w3.org/2000/svg"><path fill-rule="evenodd" clip-rule="evenodd" d="M6.27 34.385h10.46c.36 0 .655-.295.655-.654a.656.656 0 00-.654-.654H6.269a1.967 1.967 0 01-1.961-1.962V6.27c0-1.079.882-1.961 1.961-1.961h15.693c1.078 0 1.961.882 1.961 1.961v7.846c0 .36.294.654.654.654.36 0 .654-.294.654-.654V6.27A3.279 3.279 0 0021.96 3H6.27A3.279 3.279 0 003 6.27v24.845a3.279 3.279 0 003.27 3.27zm1.306-19.616h13.077c.36 0 .654-.294.654-.654V7.576a.656.656 0 00-.654-.653H7.576a.656.656 0 00-.653.653v6.539c0 .36.294.654.653.654zM20 13.46H8.23V8.23H20v5.23zM26.539 37c-5.77 0-10.462-4.691-10.462-10.462 0-2.487.872-4.773 2.326-6.57a1.308 1.308 0 111.565-1.566 10.413 10.413 0 016.571-2.325c5.77 0 10.462 4.691 10.462 10.461C37 32.308 32.309 37 26.539 37zm0-19.616c-5.051 0-9.154 4.103-9.154 9.154s4.103 9.154 9.154 9.154c5.05 0 9.154-4.103 9.154-9.154 0-5.05-4.103-9.154-9.154-9.154zM9.538 18.692a1.308 1.308 0 11-2.615 0 1.308 1.308 0 012.615 0zM13.462 20a1.308 1.308 0 100-2.615 1.308 1.308 0 000 2.615zM8.23 25.23a1.308 1.308 0 100-2.615 1.308 1.308 0 000 2.615zm6.54-1.307a1.308 1.308 0 11-2.616 0 1.308 1.308 0 012.616 0zM8.23 30.46a1.308 1.308 0 100-2.615 1.308 1.308 0 000 2.615zm6.54-1.307a1.308 1.308 0 11-2.616 0 1.308 1.308 0 012.616 0z" fill="#fff"/><path d="M8.23 13.461h-.1v.1h.1v-.1zm11.77 0v.1h.1v-.1H20zM8.23 8.231v-.1h-.1v.1h.1zm11.77 0h.1v-.1H20v.1zm-1.597 11.737l.077.063.101-.125-.156-.036-.022.098zm1.565-1.566l-.098.022.036.157.125-.1-.063-.079zm-3.237 15.883H6.269v.2h10.462v-.2zm.554-.554c0 .304-.25.554-.554.554v.2a.756.756 0 00.754-.754h-.2zm-.554-.554c.304 0 .554.25.554.554h.2a.756.756 0 00-.754-.754v.2zm-10.462 0h10.462v-.2H6.269v.2zm-2.061-2.062c0 1.134.927 2.062 2.061 2.062v-.2a1.867 1.867 0 01-1.861-1.862h-.2zm0-24.846v24.846h.2V6.27h-.2zm2.061-2.061a2.067 2.067 0 00-2.061 2.061h.2c0-1.023.838-1.861 1.861-1.861v-.2zm15.693 0H6.269v.2h15.693v-.2zm2.061 2.061a2.067 2.067 0 00-2.061-2.061v.2c1.023 0 1.861.838 1.861 1.861h.2zm0 7.846V6.27h-.2v7.846h.2zm.554.554a.556.556 0 01-.554-.554h-.2c0 .415.34.754.754.754v-.2zm.554-.554c0 .305-.25.554-.554.554v.2a.756.756 0 00.754-.754h-.2zm0-7.846v7.846h.2V6.27h-.2zM21.96 3.1a3.179 3.179 0 013.17 3.17h.2a3.379 3.379 0 00-3.37-3.37v.2zm-15.69 0h15.693v-.2H6.269v.2zM3.1 6.27A3.179 3.179 0 016.27 3.1v-.2A3.379 3.379 0 002.9 6.27h.2zm0 24.845V6.27h-.2v24.846h.2zm3.17 3.17a3.179 3.179 0 01-3.17-3.17h-.2a3.379 3.379 0 003.37 3.37v-.2zm14.383-19.616H7.576v.2h13.077v-.2zm.554-.554c0 .304-.25.554-.554.554v.2a.756.756 0 00.754-.754h-.2zm0-6.539v6.539h.2V7.576h-.2zm-.554-.553c.305 0 .554.249.554.553h.2a.756.756 0 00-.754-.753v.2zm-13.077 0h13.077v-.2H7.576v.2zm-.553.553c0-.304.25-.553.553-.553v-.2a.756.756 0 00-.753.753h.2zm0 6.539V7.576h-.2v6.539h.2zm.553.554a.556.556 0 01-.553-.554h-.2c0 .415.339.754.753.754v-.2zm.654-1.108H20v-.2H8.23v.2zm-.1-5.33v5.23h.2v-5.23h-.2zM20 8.13H8.23v.2H20v-.2zm.1 5.33V8.23h-.2v5.23h.2zm-4.123 13.077c0 5.826 4.736 10.562 10.562 10.562v-.2c-5.715 0-10.362-4.647-10.362-10.362h-.2zm2.348-6.633a10.513 10.513 0 00-2.348 6.633h.2c0-2.463.864-4.727 2.303-6.507l-.155-.126zm-1.04-1.213c0 .67.468 1.231 1.096 1.373l.044-.195a1.208 1.208 0 01-.94-1.178h-.2zm1.408-1.407c-.778 0-1.408.63-1.408 1.407h.2c0-.667.54-1.207 1.208-1.207v-.2zm1.373 1.095a1.408 1.408 0 00-1.373-1.095v.2c.574 0 1.056.401 1.177.94l.196-.045zm6.473-2.403c-2.511 0-4.82.88-6.634 2.348l.126.155a10.313 10.313 0 016.508-2.303v-.2zM37.1 26.538c0-5.825-4.736-10.561-10.561-10.561v.2c5.715 0 10.361 4.646 10.361 10.361h.2zM26.54 37.1c5.825 0 10.561-4.736 10.561-10.562h-.2c0 5.715-4.646 10.362-10.361 10.362v.2zm-9.054-10.562c0-4.995 4.058-9.053 9.054-9.053v-.2c-5.106 0-9.254 4.147-9.254 9.253h.2zm9.054 9.054c-4.996 0-9.054-4.058-9.054-9.054h-.2c0 5.107 4.148 9.254 9.254 9.254v-.2zm9.054-9.054c0 4.996-4.058 9.054-9.054 9.054v.2c5.106 0 9.254-4.147 9.254-9.254h-.2zm-9.054-9.053c4.996 0 9.054 4.058 9.054 9.053h.2c0-5.106-4.148-9.253-9.254-9.253v.2zM8.23 20.1c.778 0 1.408-.63 1.408-1.408h-.2c0 .667-.54 1.208-1.208 1.208v.2zm-1.407-1.408c0 .778.63 1.408 1.407 1.408v-.2c-.667 0-1.207-.54-1.207-1.208h-.2zm1.407-1.407c-.777 0-1.407.63-1.407 1.407h.2c0-.667.54-1.207 1.207-1.207v-.2zm1.408 1.407c0-.777-.63-1.407-1.408-1.407v.2c.667 0 1.208.54 1.208 1.207h.2zm5.031 0c0 .667-.54 1.208-1.207 1.208v.2c.777 0 1.408-.63 1.408-1.408h-.2zm-1.207-1.207c.667 0 1.207.54 1.207 1.207h.2c0-.777-.63-1.407-1.407-1.407v.2zm-1.208 1.207c0-.667.54-1.207 1.208-1.207v-.2c-.778 0-1.408.63-1.408 1.407h.2zm1.208 1.208c-.667 0-1.208-.54-1.208-1.208h-.2c0 .778.63 1.408 1.408 1.408v-.2zm-4.024 4.023c0 .667-.54 1.207-1.208 1.207v.2c.778 0 1.408-.63 1.408-1.407h-.2zM8.23 22.715c.667 0 1.208.54 1.208 1.208h.2c0-.778-.63-1.408-1.408-1.408v.2zm-1.207 1.208c0-.667.54-1.208 1.207-1.208v-.2c-.777 0-1.407.63-1.407 1.408h.2zM8.23 25.13c-.667 0-1.207-.54-1.207-1.207h-.2c0 .777.63 1.407 1.407 1.407v-.2zm5.232.2c.777 0 1.408-.63 1.408-1.407h-.2c0 .667-.541 1.207-1.208 1.207v.2zm-1.408-1.407c0 .777.63 1.407 1.408 1.407v-.2c-.667 0-1.208-.54-1.208-1.207h-.2zm1.408-1.408c-.778 0-1.408.63-1.408 1.408h.2c0-.667.54-1.208 1.208-1.208v-.2zm1.408 1.408c0-.778-.63-1.408-1.408-1.408v.2c.667 0 1.207.54 1.207 1.208h.2zm-5.432 5.23c0 .668-.54 1.208-1.208 1.208v.2c.778 0 1.408-.63 1.408-1.407h-.2zM8.23 27.947c.667 0 1.208.54 1.208 1.208h.2c0-.778-.63-1.408-1.408-1.408v.2zm-1.207 1.208c0-.667.54-1.208 1.207-1.208v-.2c-.777 0-1.407.63-1.407 1.408h.2zM8.23 30.36c-.667 0-1.207-.54-1.207-1.207h-.2c0 .777.63 1.407 1.407 1.407v-.2zm5.232.2c.777 0 1.408-.63 1.408-1.407h-.2c0 .667-.541 1.207-1.208 1.207v.2zm-1.408-1.407c0 .777.63 1.407 1.408 1.407v-.2c-.667 0-1.208-.54-1.208-1.207h-.2zm1.408-1.408c-.778 0-1.408.63-1.408 1.408h.2c0-.667.54-1.208 1.208-1.208v-.2zm1.408 1.408c0-.778-.63-1.408-1.408-1.408v.2c.667 0 1.207.54 1.207 1.208h.2z" fill="#fff"/><path fill-rule="evenodd" clip-rule="evenodd" d="M22.158 31.573c.13.131.294.196.457.196a.712.712 0 00.475-.196l9.153-9.154a.651.651 0 000-.931.651.651 0 00-.931 0l-9.154 9.154a.651.651 0 000 .931zm.457-5.035A2.623 2.623 0 0120 23.923a2.623 2.623 0 012.615-2.616 2.623 2.623 0 012.616 2.616 2.623 2.623 0 01-2.616 2.615zm0-3.923c-.719 0-1.307.589-1.307 1.308 0 .72.588 1.308 1.307 1.308.72 0 1.308-.589 1.308-1.308 0-.72-.588-1.308-1.308-1.308zm7.846 9.154a2.623 2.623 0 01-2.615-2.615 2.623 2.623 0 012.615-2.616 2.623 2.623 0 012.616 2.616 2.623 2.623 0 01-2.616 2.615zm0-3.923c-.719 0-1.307.589-1.307 1.308 0 .72.588 1.308 1.307 1.308.72 0 1.308-.589 1.308-1.308 0-.72-.588-1.308-1.308-1.308z" fill="#fff"/><path d="M22.158 31.573l-.07.07.07-.07zm.931 0l.067.075.004-.004-.07-.07zm9.154-9.154l-.07-.07.07.07zm0-.931l-.07.07.07-.07zm-.931 0l.07.07-.07-.07zm-9.154 9.154l.07.07-.07-.07zm.457 1.027a.546.546 0 01-.386-.166l-.142.14a.746.746 0 00.529.226v-.2zm.408-.17a.613.613 0 01-.407.17v.2a.813.813 0 00.54-.221l-.133-.15zm9.15-9.15l-9.154 9.154.141.14 9.154-9.153-.141-.141zm0-.79a.551.551 0 010 .79l.141.141c.3-.3.3-.772 0-1.073l-.141.141zm-.79 0a.551.551 0 01.79 0l.141-.142c-.3-.3-.773-.3-1.073 0l.141.141zm-9.154 9.153l9.153-9.154-.141-.141-9.154 9.154.142.141zm0 .79a.551.551 0 010-.79l-.142-.141c-.3.3-.3.772 0 1.073l.142-.141zm-2.329-7.58a2.723 2.723 0 002.715 2.716v-.2a2.523 2.523 0 01-2.515-2.515h-.2zm2.715-2.715a2.723 2.723 0 00-2.715 2.716h.2a2.523 2.523 0 012.515-2.516v-.2zm2.716 2.716a2.723 2.723 0 00-2.716-2.716v.2a2.523 2.523 0 012.516 2.516h.2zm-2.716 2.715a2.723 2.723 0 002.716-2.715h-.2a2.523 2.523 0 01-2.516 2.515v.2zm-1.207-2.715c0-.664.543-1.208 1.207-1.208v-.2c-.774 0-1.407.633-1.407 1.408h.2zm1.207 1.208a1.212 1.212 0 01-1.207-1.208h-.2c0 .774.633 1.408 1.407 1.408v-.2zm1.208-1.208c0 .664-.544 1.208-1.208 1.208v.2c.775 0 1.408-.634 1.408-1.408h-.2zm-1.208-1.208c.664 0 1.208.544 1.208 1.208h.2c0-.775-.633-1.408-1.408-1.408v.2zm5.13 6.439a2.723 2.723 0 002.716 2.715v-.2a2.523 2.523 0 01-2.515-2.515h-.2zm2.716-2.715a2.723 2.723 0 00-2.715 2.715h.2a2.523 2.523 0 012.515-2.515v-.2zm2.716 2.715a2.723 2.723 0 00-2.716-2.715v.2a2.523 2.523 0 012.516 2.515h.2zm-2.716 2.715a2.723 2.723 0 002.716-2.715h-.2a2.523 2.523 0 01-2.516 2.515v.2zm-1.207-2.715c0-.664.543-1.208 1.207-1.208v-.2c-.774 0-1.407.633-1.407 1.408h.2zm1.207 1.208a1.212 1.212 0 01-1.207-1.208h-.2c0 .774.633 1.408 1.407 1.408v-.2zm1.208-1.208c0 .664-.544 1.208-1.208 1.208v.2c.775 0 1.408-.634 1.408-1.408h-.2zm-1.208-1.208c.664 0 1.208.544 1.208 1.208h.2c0-.775-.633-1.408-1.408-1.408v.2z" fill="#fff"/></svg>