<svg width="40" height="40" viewBox="0 0 40 40" fill="none" xmlns="http://www.w3.org/2000/svg">
<path fill-rule="evenodd" clip-rule="evenodd" d="M6.26924 34.3847H16.7308C17.0904 34.3847 17.3846 34.0904 17.3846 33.7308C17.3846 33.3712 17.0904 33.077 16.7308 33.077H6.26924C5.19039 33.077 4.30769 32.1943 4.30769 31.1154V6.26924C4.30769 5.19039 5.19039 4.30769 6.26924 4.30769H21.9616C23.0404 4.30769 23.9231 5.19039 23.9231 6.26924V14.1154C23.9231 14.475 24.2173 14.7693 24.577 14.7693C24.9366 14.7693 25.2308 14.475 25.2308 14.1154V6.26924C25.2308 4.47116 23.7597 3 21.9616 3H6.26924C4.47116 3 3 4.47116 3 6.26924V31.1154C3 32.9135 4.47116 34.3847 6.26924 34.3847ZM7.57647 14.7687H20.6534C21.013 14.7687 21.3073 14.4745 21.3073 14.1149V7.5764C21.3073 7.21678 21.013 6.92255 20.6534 6.92255H7.57647C7.21686 6.92255 6.92263 7.21678 6.92263 7.5764V14.1149C6.92263 14.4745 7.21686 14.7687 7.57647 14.7687ZM19.9996 13.461H8.23032V8.23024H19.9996V13.461ZM26.539 36.9999C20.7688 36.9999 16.0774 32.3086 16.0774 26.5384C16.0774 24.0513 16.9489 21.7647 18.4027 19.9678C17.82 19.8359 17.3849 19.3149 17.3849 18.6924C17.3849 17.9701 17.9704 17.3847 18.6926 17.3847C19.3152 17.3847 19.8361 17.8197 19.9681 18.4024C21.765 16.9484 24.0518 16.0768 26.539 16.0768C32.3092 16.0768 37.0005 20.7682 37.0005 26.5384C37.0005 32.3086 32.3092 36.9999 26.539 36.9999ZM26.539 17.3845C21.488 17.3845 17.3851 21.4874 17.3851 26.5384C17.3851 31.5893 21.488 35.6922 26.539 35.6922C31.5899 35.6922 35.6928 31.5893 35.6928 26.5384C35.6928 21.4874 31.5899 17.3845 26.539 17.3845ZM9.53801 18.6924C9.53801 19.4146 8.95254 20.0001 8.23032 20.0001C7.5081 20.0001 6.92263 19.4146 6.92263 18.6924C6.92263 17.9701 7.5081 17.3847 8.23032 17.3847C8.95254 17.3847 9.53801 17.9701 9.53801 18.6924ZM13.4618 20.0001C14.184 20.0001 14.7695 19.4146 14.7695 18.6924C14.7695 17.9701 14.184 17.3847 13.4618 17.3847C12.7396 17.3847 12.1541 17.9701 12.1541 18.6924C12.1541 19.4146 12.7396 20.0001 13.4618 20.0001ZM8.23032 25.2303C8.95254 25.2303 9.53801 24.6448 9.53801 23.9226C9.53801 23.2003 8.95254 22.6149 8.23032 22.6149C7.5081 22.6149 6.92263 23.2003 6.92263 23.9226C6.92263 24.6448 7.5081 25.2303 8.23032 25.2303ZM14.7695 23.9226C14.7695 24.6448 14.184 25.2303 13.4618 25.2303C12.7396 25.2303 12.1541 24.6448 12.1541 23.9226C12.1541 23.2003 12.7396 22.6149 13.4618 22.6149C14.184 22.6149 14.7695 23.2003 14.7695 23.9226ZM8.23032 30.4613C8.95254 30.4613 9.53801 29.8758 9.53801 29.1536C9.53801 28.4314 8.95254 27.8459 8.23032 27.8459C7.5081 27.8459 6.92263 28.4314 6.92263 29.1536C6.92263 29.8758 7.5081 30.4613 8.23032 30.4613ZM14.7695 29.1536C14.7695 29.8758 14.184 30.4613 13.4618 30.4613C12.7396 30.4613 12.1541 29.8758 12.1541 29.1536C12.1541 28.4314 12.7396 27.8459 13.4618 27.8459C14.184 27.8459 14.7695 28.4314 14.7695 29.1536Z" fill="white"/>
<path d="M8.23032 13.461H8.13032V13.561H8.23032V13.461ZM19.9996 13.461V13.561H20.0996V13.461H19.9996ZM8.23032 8.23024V8.13024H8.13032V8.23024H8.23032ZM19.9996 8.23024H20.0996V8.13024H19.9996V8.23024ZM18.4027 19.9678L18.4804 20.0307L18.5815 19.9057L18.4248 19.8703L18.4027 19.9678ZM19.9681 18.4024L19.8705 18.4245L19.906 18.5812L20.031 18.4801L19.9681 18.4024ZM16.7308 34.2847H6.26924V34.4847H16.7308V34.2847ZM17.2846 33.7308C17.2846 34.0352 17.0352 34.2847 16.7308 34.2847V34.4847C17.1456 34.4847 17.4846 34.1457 17.4846 33.7308H17.2846ZM16.7308 33.177C17.0352 33.177 17.2846 33.4264 17.2846 33.7308H17.4846C17.4846 33.316 17.1456 32.977 16.7308 32.977V33.177ZM6.26924 33.177H16.7308V32.977H6.26924V33.177ZM4.20769 31.1154C4.20769 32.2495 5.13516 33.177 6.26924 33.177V32.977C5.24562 32.977 4.40769 32.1391 4.40769 31.1154H4.20769ZM4.20769 6.26924V31.1154H4.40769V6.26924H4.20769ZM6.26924 4.20769C5.13516 4.20769 4.20769 5.13516 4.20769 6.26924H4.40769C4.40769 5.24562 5.24562 4.40769 6.26924 4.40769V4.20769ZM21.9616 4.20769H6.26924V4.40769H21.9616V4.20769ZM24.0231 6.26924C24.0231 5.13516 23.0957 4.20769 21.9616 4.20769V4.40769C22.9852 4.40769 23.8231 5.24562 23.8231 6.26924H24.0231ZM24.0231 14.1154V6.26924H23.8231V14.1154H24.0231ZM24.577 14.6693C24.2726 14.6693 24.0231 14.4198 24.0231 14.1154H23.8231C23.8231 14.5302 24.1621 14.8693 24.577 14.8693V14.6693ZM25.1308 14.1154C25.1308 14.4198 24.8814 14.6693 24.577 14.6693V14.8693C24.9918 14.8693 25.3308 14.5302 25.3308 14.1154H25.1308ZM25.1308 6.26924V14.1154H25.3308V6.26924H25.1308ZM21.9616 3.1C23.7044 3.1 25.1308 4.52638 25.1308 6.26924H25.3308C25.3308 4.41593 23.8149 2.9 21.9616 2.9V3.1ZM6.26924 3.1H21.9616V2.9H6.26924V3.1ZM3.1 6.26924C3.1 4.52638 4.52639 3.1 6.26924 3.1V2.9C4.41593 2.9 2.9 4.41593 2.9 6.26924H3.1ZM3.1 31.1154V6.26924H2.9V31.1154H3.1ZM6.26924 34.2847C4.52639 34.2847 3.1 32.8583 3.1 31.1154H2.9C2.9 32.9687 4.41593 34.4847 6.26924 34.4847V34.2847ZM20.6534 14.6687H7.57647V14.8687H20.6534V14.6687ZM21.2073 14.1149C21.2073 14.4193 20.9578 14.6687 20.6534 14.6687V14.8687C21.0683 14.8687 21.4073 14.5297 21.4073 14.1149H21.2073ZM21.2073 7.5764V14.1149H21.4073V7.5764H21.2073ZM20.6534 7.02255C20.9578 7.02255 21.2073 7.27201 21.2073 7.5764H21.4073C21.4073 7.16155 21.0683 6.82255 20.6534 6.82255V7.02255ZM7.57647 7.02255H20.6534V6.82255H7.57647V7.02255ZM7.02263 7.5764C7.02263 7.27201 7.27209 7.02255 7.57647 7.02255V6.82255C7.16163 6.82255 6.82263 7.16155 6.82263 7.5764H7.02263ZM7.02263 14.1149V7.5764H6.82263V14.1149H7.02263ZM7.57647 14.6687C7.27208 14.6687 7.02263 14.4193 7.02263 14.1149H6.82263C6.82263 14.5297 7.16163 14.8687 7.57647 14.8687V14.6687ZM8.23032 13.561H19.9996V13.361H8.23032V13.561ZM8.13032 8.23024V13.461H8.33032V8.23024H8.13032ZM19.9996 8.13024H8.23032V8.33024H19.9996V8.13024ZM20.0996 13.461V8.23024H19.8996V13.461H20.0996ZM15.9774 26.5384C15.9774 32.3638 20.7135 37.0999 26.539 37.0999V36.8999C20.824 36.8999 16.1774 32.2533 16.1774 26.5384H15.9774ZM18.325 19.9049C16.8573 21.7189 15.9774 24.0276 15.9774 26.5384H16.1774C16.1774 24.0751 17.0405 21.8105 18.4804 20.0307L18.325 19.9049ZM17.2849 18.6924C17.2849 19.3627 17.7534 19.9233 18.3806 20.0653L18.4248 19.8703C17.8867 19.7485 17.4849 19.2672 17.4849 18.6924H17.2849ZM18.6926 17.2847C17.9152 17.2847 17.2849 17.9149 17.2849 18.6924H17.4849C17.4849 18.0254 18.0257 17.4847 18.6926 17.4847V17.2847ZM20.0656 18.3803C19.9236 17.7531 19.3629 17.2847 18.6926 17.2847V17.4847C19.2675 17.4847 19.7487 17.8864 19.8705 18.4245L20.0656 18.3803ZM26.539 15.9768C24.028 15.9768 21.7193 16.8568 19.9052 18.3246L20.031 18.4801C21.8108 17.04 24.0756 16.1768 26.539 16.1768V15.9768ZM37.1005 26.5384C37.1005 20.7129 32.3644 15.9768 26.539 15.9768V16.1768C32.2539 16.1768 36.9005 20.8234 36.9005 26.5384H37.1005ZM26.539 37.0999C32.3644 37.0999 37.1005 32.3638 37.1005 26.5384H36.9005C36.9005 32.2533 32.2539 36.8999 26.539 36.8999V37.0999ZM17.4851 26.5384C17.4851 21.5426 21.5432 17.4845 26.539 17.4845V17.2845C21.4328 17.2845 17.2851 21.4322 17.2851 26.5384H17.4851ZM26.539 35.5922C21.5432 35.5922 17.4851 31.5341 17.4851 26.5384H17.2851C17.2851 31.6446 21.4328 35.7922 26.539 35.7922V35.5922ZM35.5928 26.5384C35.5928 31.5341 31.5347 35.5922 26.539 35.5922V35.7922C31.6452 35.7922 35.7928 31.6446 35.7928 26.5384H35.5928ZM26.539 17.4845C31.5347 17.4845 35.5928 21.5426 35.5928 26.5384H35.7928C35.7928 21.4322 31.6452 17.2845 26.539 17.2845V17.4845ZM8.23032 20.1001C9.00777 20.1001 9.63801 19.4698 9.63801 18.6924H9.43801C9.43801 19.3594 8.89731 19.9001 8.23032 19.9001V20.1001ZM6.82263 18.6924C6.82263 19.4698 7.45287 20.1001 8.23032 20.1001V19.9001C7.56333 19.9001 7.02263 19.3594 7.02263 18.6924H6.82263ZM8.23032 17.2847C7.45287 17.2847 6.82263 17.9149 6.82263 18.6924H7.02263C7.02263 18.0254 7.56333 17.4847 8.23032 17.4847V17.2847ZM9.63801 18.6924C9.63801 17.9149 9.00777 17.2847 8.23032 17.2847V17.4847C8.89731 17.4847 9.43801 18.0254 9.43801 18.6924H9.63801ZM14.6695 18.6924C14.6695 19.3594 14.1288 19.9001 13.4618 19.9001V20.1001C14.2393 20.1001 14.8695 19.4698 14.8695 18.6924H14.6695ZM13.4618 17.4847C14.1288 17.4847 14.6695 18.0254 14.6695 18.6924H14.8695C14.8695 17.9149 14.2393 17.2847 13.4618 17.2847V17.4847ZM12.2541 18.6924C12.2541 18.0254 12.7948 17.4847 13.4618 17.4847V17.2847C12.6844 17.2847 12.0541 17.9149 12.0541 18.6924H12.2541ZM13.4618 19.9001C12.7948 19.9001 12.2541 19.3594 12.2541 18.6924H12.0541C12.0541 19.4698 12.6844 20.1001 13.4618 20.1001V19.9001ZM9.43801 23.9226C9.43801 24.5896 8.89731 25.1303 8.23032 25.1303V25.3303C9.00777 25.3303 9.63801 24.7 9.63801 23.9226H9.43801ZM8.23032 22.7149C8.89731 22.7149 9.43801 23.2556 9.43801 23.9226H9.63801C9.63801 23.1451 9.00777 22.5149 8.23032 22.5149V22.7149ZM7.02263 23.9226C7.02263 23.2556 7.56333 22.7149 8.23032 22.7149V22.5149C7.45287 22.5149 6.82263 23.1451 6.82263 23.9226H7.02263ZM8.23032 25.1303C7.56333 25.1303 7.02263 24.5896 7.02263 23.9226H6.82263C6.82263 24.7 7.45287 25.3303 8.23032 25.3303V25.1303ZM13.4618 25.3303C14.2393 25.3303 14.8695 24.7 14.8695 23.9226H14.6695C14.6695 24.5896 14.1288 25.1303 13.4618 25.1303V25.3303ZM12.0541 23.9226C12.0541 24.7 12.6844 25.3303 13.4618 25.3303V25.1303C12.7948 25.1303 12.2541 24.5896 12.2541 23.9226H12.0541ZM13.4618 22.5149C12.6844 22.5149 12.0541 23.1451 12.0541 23.9226H12.2541C12.2541 23.2556 12.7948 22.7149 13.4618 22.7149V22.5149ZM14.8695 23.9226C14.8695 23.1451 14.2393 22.5149 13.4618 22.5149V22.7149C14.1288 22.7149 14.6695 23.2556 14.6695 23.9226H14.8695ZM9.43801 29.1536C9.43801 29.8206 8.89731 30.3613 8.23032 30.3613V30.5613C9.00777 30.5613 9.63801 29.9311 9.63801 29.1536H9.43801ZM8.23032 27.9459C8.89731 27.9459 9.43801 28.4866 9.43801 29.1536H9.63801C9.63801 28.3762 9.00777 27.7459 8.23032 27.7459V27.9459ZM7.02263 29.1536C7.02263 28.4866 7.56333 27.9459 8.23032 27.9459V27.7459C7.45287 27.7459 6.82263 28.3762 6.82263 29.1536H7.02263ZM8.23032 30.3613C7.56333 30.3613 7.02263 29.8206 7.02263 29.1536H6.82263C6.82263 29.9311 7.45287 30.5613 8.23032 30.5613V30.3613ZM13.4618 30.5613C14.2393 30.5613 14.8695 29.9311 14.8695 29.1536H14.6695C14.6695 29.8206 14.1288 30.3613 13.4618 30.3613V30.5613ZM12.0541 29.1536C12.0541 29.9311 12.6844 30.5613 13.4618 30.5613V30.3613C12.7948 30.3613 12.2541 29.8206 12.2541 29.1536H12.0541ZM13.4618 27.7459C12.6844 27.7459 12.0541 28.3762 12.0541 29.1536H12.2541C12.2541 28.4866 12.7948 27.9459 13.4618 27.9459V27.7459ZM14.8695 29.1536C14.8695 28.3762 14.2393 27.7459 13.4618 27.7459V27.9459C14.1288 27.9459 14.6695 28.4866 14.6695 29.1536H14.8695Z" fill="white"/>
<path fill-rule="evenodd" clip-rule="evenodd" d="M22.1578 31.5732C22.2886 31.704 22.452 31.7694 22.6155 31.7694C22.779 31.7694 22.9424 31.704 23.0895 31.5732L32.2434 22.4193C32.5049 22.1578 32.5049 21.7492 32.2434 21.4876C31.9819 21.2261 31.5732 21.2261 31.3117 21.4876L22.1578 30.6415C21.8963 30.903 21.8963 31.3117 22.1578 31.5732ZM22.6154 26.5382C21.1769 26.5382 20 25.3613 20 23.9228C20 22.4844 21.1769 21.3074 22.6154 21.3074C24.0539 21.3074 25.2308 22.4844 25.2308 23.9228C25.2308 25.3613 24.0539 26.5382 22.6154 26.5382ZM22.6154 22.6151C21.8962 22.6151 21.3077 23.2036 21.3077 23.9228C21.3077 24.6421 21.8962 25.2305 22.6154 25.2305C23.3346 25.2305 23.9231 24.6421 23.9231 23.9228C23.9231 23.2036 23.3346 22.6151 22.6154 22.6151ZM30.4613 31.7693C29.0228 31.7693 27.8459 30.5923 27.8459 29.1539C27.8459 27.7154 29.0228 26.5385 30.4613 26.5385C31.8998 26.5385 33.0767 27.7154 33.0767 29.1539C33.0767 30.5923 31.8998 31.7693 30.4613 31.7693ZM30.4613 27.8462C29.7421 27.8462 29.1536 28.4346 29.1536 29.1539C29.1536 29.8731 29.7421 30.4616 30.4613 30.4616C31.1805 30.4616 31.769 29.8731 31.769 29.1539C31.769 28.4346 31.1805 27.8462 30.4613 27.8462Z" fill="white"/>
<path d="M22.1578 31.5732L22.0871 31.6439L22.0871 31.6439L22.1578 31.5732ZM23.0895 31.5732L23.1561 31.6481L23.1602 31.6439L23.0895 31.5732ZM32.2434 22.4193L32.1727 22.3486L32.1727 22.3486L32.2434 22.4193ZM32.2434 21.4876L32.1727 21.5583L32.1727 21.5583L32.2434 21.4876ZM31.3117 21.4876L31.3824 21.5583V21.5583L31.3117 21.4876ZM22.1578 30.6415L22.2285 30.7122V30.7122L22.1578 30.6415ZM22.6155 31.6694C22.4794 31.6694 22.3411 31.6151 22.2285 31.5025L22.0871 31.6439C22.236 31.7928 22.4247 31.8694 22.6155 31.8694V31.6694ZM23.0231 31.4985C22.8914 31.6155 22.7509 31.6694 22.6155 31.6694V31.8694C22.807 31.8694 22.9934 31.7924 23.156 31.648L23.0231 31.4985ZM32.1727 22.3486L23.0188 31.5025L23.1602 31.6439L32.3141 22.4901L32.1727 22.3486ZM32.1727 21.5583C32.3952 21.7808 32.3952 22.1261 32.1727 22.3486L32.3141 22.4901C32.6147 22.1895 32.6147 21.7175 32.3141 21.4169L32.1727 21.5583ZM31.3824 21.5583C31.6049 21.3358 31.9502 21.3358 32.1727 21.5583L32.3141 21.4169C32.0135 21.1163 31.5415 21.1163 31.2409 21.4169L31.3824 21.5583ZM22.2285 30.7122L31.3824 21.5583L31.2409 21.4169L22.0871 30.5708L22.2285 30.7122ZM22.2285 31.5025C22.006 31.28 22.006 30.9347 22.2285 30.7122L22.0871 30.5708C21.7865 30.8714 21.7865 31.3433 22.0871 31.6439L22.2285 31.5025ZM19.9 23.9228C19.9 25.4165 21.1217 26.6382 22.6154 26.6382V26.4382C21.2322 26.4382 20.1 25.3061 20.1 23.9228H19.9ZM22.6154 21.2074C21.1217 21.2074 19.9 22.4291 19.9 23.9228H20.1C20.1 22.5396 21.2322 21.4074 22.6154 21.4074V21.2074ZM25.3308 23.9228C25.3308 22.4291 24.1091 21.2074 22.6154 21.2074V21.4074C23.9986 21.4074 25.1308 22.5396 25.1308 23.9228H25.3308ZM22.6154 26.6382C24.1091 26.6382 25.3308 25.4165 25.3308 23.9228H25.1308C25.1308 25.3061 23.9986 26.4382 22.6154 26.4382V26.6382ZM21.4077 23.9228C21.4077 23.2588 21.9514 22.7151 22.6154 22.7151V22.5151C21.8409 22.5151 21.2077 23.1484 21.2077 23.9228H21.4077ZM22.6154 25.1305C21.9514 25.1305 21.4077 24.5868 21.4077 23.9228H21.2077C21.2077 24.6973 21.8409 25.3305 22.6154 25.3305V25.1305ZM23.8231 23.9228C23.8231 24.5868 23.2794 25.1305 22.6154 25.1305V25.3305C23.3898 25.3305 24.0231 24.6973 24.0231 23.9228H23.8231ZM22.6154 22.7151C23.2794 22.7151 23.8231 23.2588 23.8231 23.9228H24.0231C24.0231 23.1484 23.3898 22.5151 22.6154 22.5151V22.7151ZM27.7459 29.1539C27.7459 30.6476 28.9676 31.8693 30.4613 31.8693V31.6693C29.0781 31.6693 27.9459 30.5371 27.9459 29.1539H27.7459ZM30.4613 26.4385C28.9676 26.4385 27.7459 27.6602 27.7459 29.1539H27.9459C27.9459 27.7706 29.0781 26.6385 30.4613 26.6385V26.4385ZM33.1767 29.1539C33.1767 27.6602 31.955 26.4385 30.4613 26.4385V26.6385C31.8445 26.6385 32.9767 27.7706 32.9767 29.1539H33.1767ZM30.4613 31.8693C31.955 31.8693 33.1767 30.6476 33.1767 29.1539H32.9767C32.9767 30.5371 31.8445 31.6693 30.4613 31.6693V31.8693ZM29.2536 29.1539C29.2536 28.4899 29.7973 27.9462 30.4613 27.9462V27.7462C29.6868 27.7462 29.0536 28.3794 29.0536 29.1539H29.2536ZM30.4613 30.3616C29.7973 30.3616 29.2536 29.8179 29.2536 29.1539H29.0536C29.0536 29.9283 29.6868 30.5616 30.4613 30.5616V30.3616ZM31.669 29.1539C31.669 29.8179 31.1253 30.3616 30.4613 30.3616V30.5616C31.2358 30.5616 31.869 29.9283 31.869 29.1539H31.669ZM30.4613 27.9462C31.1253 27.9462 31.669 28.4899 31.669 29.1539H31.869C31.869 28.3794 31.2358 27.7462 30.4613 27.7462V27.9462Z" fill="white"/>
</svg>
