<svg width="40" height="40" fill="none" xmlns="http://www.w3.org/2000/svg"><path d="M36.103 29.359H3.623c-.892 0-1.623-.73-1.623-1.624V6.624C2 5.73 2.73 5 3.624 5h32.479c.893 0 1.623.73 1.623 1.624v21.111c0 .893-.73 1.624-1.623 1.624zM17.427 34.23v-4.87m4.873-.001v4.872m-9.745-.001h14.616M2 24.487h35.727m-18.676 2.436h1.624" stroke="#fff" stroke-width="1.7" stroke-miterlimit="10" stroke-linecap="round" stroke-linejoin="round"/><path d="M14.18 9.06v4.871h4.872A4.886 4.886 0 0014.18 9.06z" stroke="#fff" stroke-width="1.7" stroke-miterlimit="10" stroke-linecap="round" stroke-linejoin="round"/><path d="M17.428 15.556a4.886 4.886 0 01-4.872 4.871 4.886 4.886 0 01-4.872-4.871 4.886 4.886 0 014.872-4.872m9.744 1.624h10.555M22.3 15.556h10.555M22.3 18.803h6.495" stroke="#fff" stroke-width="1.7" stroke-miterlimit="10" stroke-linecap="round" stroke-linejoin="round"/></svg>