<svg width="39" height="39" fill="none" xmlns="http://www.w3.org/2000/svg"><path d="M30.556 17.345c.244-1.312.122-2.504-.244-3.697-.365-1.43-1.218-2.623-2.194-3.577-1.096-1.073-2.315-1.67-3.778-1.908-.853-.119-1.706-.119-2.437.12" stroke="#fff" stroke-width="1.834" stroke-miterlimit="22.926" stroke-linecap="round" stroke-linejoin="round"/><path d="M36.65 20.207c.975-3.1.975-6.2 0-8.943-.731-2.147-1.95-4.055-3.413-5.605-1.584-1.55-3.412-2.861-5.606-3.458-2.316-.715-4.875-.834-7.556 0m-8.654 11.567c-1.95 1.788-1.34 5.962 1.463 9.539s6.703 5.127 9.019 3.816l.806-.745" stroke="#fff" stroke-width="1.834" stroke-miterlimit="22.926" stroke-linecap="round" stroke-linejoin="round"/><path d="M28.24 35.112c5.015-3.691-.487.477-2.194 1.67-3.168 2.265-10.725-2.028-17.306-10.494C2.159 17.822-.035 9.594 2.89 7.21c1.584-1.312 2.072-1.55 2.194-1.67" stroke="#fff" stroke-width="1.834" stroke-miterlimit="22.926" stroke-linecap="round" stroke-linejoin="round"/><path d="M29.016 33.21l-6.094-7.751c-.366-.477-.244-1.073.244-1.43L25.969 22c.487-.358 1.097-.239 1.462.238l6.094 7.751c.366.477.244 1.073-.243 1.431l-2.804 2.027c-.365.239-1.097.12-1.462-.238zM12.518 13.053L6.425 5.302c-.366-.477-.244-1.073.243-1.431L9.35 1.844c.487-.358 1.096-.239 1.462.12l6.094 7.75c.366.477.244 1.073-.244 1.43l-2.803 2.028c-.366.477-.975.358-1.34-.12z" stroke="#fff" stroke-width="1.834" stroke-miterlimit="22.926" stroke-linecap="round" stroke-linejoin="round"/></svg>