<svg width="43" height="41" fill="none" xmlns="http://www.w3.org/2000/svg"><path d="M41.674 17.639c0-9.053-9.048-16.396-20.174-16.396S1.326 8.586 1.326 17.64c0 8.082 7.156 14.871 16.85 16.164.647.139 1.57.416 1.755 1.016.184.508.138 1.293.046 1.848l-.277 1.709c-.093.508-.416 1.985 1.754 1.108 2.17-.924 11.633-6.835 15.834-11.731 3-3.233 4.386-6.512 4.386-10.114z" stroke="#fff" stroke-width="1.834" stroke-miterlimit="22.926" stroke-linecap="round" stroke-linejoin="round"/><path d="M17.923 14.23h-1.245c-.201 0-.362.16-.362.321v7.639c0 .201.16.322.362.322h1.245c.201 0 .362-.161.362-.322v-7.639c0-.16-.16-.322-.362-.322zm8.48 0h-1.206c-.2 0-.361.16-.361.321v4.543l-3.497-4.744s0-.04-.04-.04l-.04-.04h-1.286c-.2 0-.362.16-.362.321v7.64c0 .2.161.32.362.32h1.246c.2 0 .361-.16.361-.32v-4.544l3.497 4.744c.04.04.04.08.08.08h1.246c.2 0 .362-.16.362-.321v-7.639c0-.16-.161-.322-.362-.322zM14.95 20.623h-3.336v-6.07a.36.36 0 00-.362-.363h-1.245a.36.36 0 00-.362.362v7.64c0 .08.04.16.08.24.08.04.161.08.242.08h4.902c.201 0 .322-.16.322-.361v-1.246c.12-.121-.04-.282-.241-.282zm18.244-4.503c.201 0 .322-.161.322-.362V14.51c0-.2-.161-.362-.322-.362h-4.903c-.08 0-.16.04-.24.08-.04.081-.081.162-.081.242v7.639c0 .08.04.16.08.241.08.04.161.08.241.08h4.903c.201 0 .322-.16.322-.361v-1.247c0-.2-.161-.361-.322-.361H29.86v-1.126h3.335c.201 0 .322-.161.322-.362v-1.246c0-.201-.161-.362-.322-.362H29.86v-1.247h3.335z" fill="#fff"/></svg>