<svg width="42" height="20" fill="none" xmlns="http://www.w3.org/2000/svg"><path d="M4.727 10.1h-2.32V9h5.94v1.1h-2.32V16h-1.3v-5.9zm7.768 6c-.713 0-1.356-.153-1.93-.46a3.49 3.49 0 01-1.35-1.29 3.57 3.57 0 01-.49-1.85c0-.68.163-1.293.49-1.84a3.398 3.398 0 011.35-1.29 3.964 3.964 0 011.93-.47c.714 0 1.357.157 1.93.47a3.42 3.42 0 011.35 1.28c.327.547.49 1.163.49 1.85s-.163 1.303-.49 1.85a3.49 3.49 0 01-1.35 1.29c-.573.307-1.216.46-1.93.46zm0-1.14c.467 0 .887-.103 1.26-.31.373-.213.667-.507.88-.88.213-.38.32-.803.32-1.27 0-.467-.107-.887-.32-1.26a2.235 2.235 0 00-.88-.88 2.495 2.495 0 00-1.26-.32 2.5 2.5 0 00-1.26.32c-.373.207-.666.5-.88.88-.213.373-.32.793-.32 1.26 0 .467.107.89.32 1.27.213.373.507.667.88.88.373.207.793.31 1.26.31zM20.523 9c.607 0 1.134.1 1.58.3.453.2.8.487 1.04.86s.36.817.36 1.33c0 .507-.12.95-.36 1.33-.24.373-.587.66-1.04.86-.447.2-.973.3-1.58.3h-1.58V16h-1.3V9h2.88zm-.06 3.88c.567 0 .997-.12 1.29-.36.294-.24.44-.583.44-1.03 0-.447-.146-.79-.44-1.03-.293-.24-.723-.36-1.29-.36h-1.52v2.78h1.52zm6.77-.99c.646.08 1.14.3 1.48.66.34.36.51.81.51 1.35 0 .407-.104.777-.31 1.11-.207.333-.52.6-.94.8-.414.193-.92.29-1.52.29-.5 0-.984-.07-1.45-.21a3.781 3.781 0 01-1.18-.6l.56-1.01c.253.213.56.383.92.51.366.12.743.18 1.13.18.46 0 .82-.093 1.08-.28a.915.915 0 00.4-.78.879.879 0 00-.38-.76c-.247-.187-.627-.28-1.14-.28h-.64v-.89l1.59-1.89h-3.18V9h4.77v.87l-1.7 2.02z" fill="#FFB200"/><g clip-path="url(#clip0)"><g clip-path="url(#clip1)"><path d="M36.629 10.097l-6.218-3.12a.326.326 0 01-.175-.245c-.216-1.613.882-3.958 1.05-4.306l.02-.04a.321.321 0 01.575.287l-.024.05a1.704 1.704 0 003.067 1.479.323.323 0 01.432-.144l.659.331c.158.08.222.274.143.432a1.703 1.703 0 003.02 1.573l.023-.046a.321.321 0 01.574.29l-.02.04c-.177.34-1.402 2.624-2.824 3.415a.328.328 0 01-.302.004z" fill="#FFE141"/><path d="M39.633 6.204s-.002 0 0 0a.321.321 0 00-.431.142l-.024.047a1.703 1.703 0 01-3.02-1.573.323.323 0 00-.143-.431l-.33-.165-2.164 4.313 3.108 1.56a.326.326 0 00.3-.007c1.423-.79 2.647-3.073 2.825-3.415l.02-.04a.321.321 0 00-.141-.43z" fill="#FFB200"/><path d="M36.084 3.43a.832.832 0 00-.746 1.486.832.832 0 00.745-1.486z" fill="#FFB200"/><path d="M36.084 3.43l-.745 1.483c.41.206.91.04 1.116-.37a.832.832 0 00-.371-1.113z" fill="#F59A2A"/><path d="M31.776 2.165a.832.832 0 00-.745 1.486.832.832 0 00.745-1.486z" fill="#FFB200"/><path d="M39.67 6.126a.832.832 0 00-.745 1.485.832.832 0 00.745-1.485z" fill="#F59A2A"/><path d="M36.156 11.04l-6.218-3.12a.323.323 0 01-.143-.432l.43-.857 6.793 3.409-.43.857a.323.323 0 01-.432.143z" fill="#FFB200"/><path d="M33.048 9.48l3.108 1.56c.158.08.352.015.432-.143l.43-.857-3.396-1.704-.574 1.144z" fill="#F59A2A"/></g></g><defs><clipPath id="clip0"><path fill="#fff" transform="rotate(26.645 15.967 67.426)" d="M0 0h11v11H0z"/></clipPath><clipPath id="clip1"><path fill="#fff" transform="rotate(26.645 15.967 67.426)" d="M0 0h11v11H0z"/></clipPath></defs></svg>