<svg width="20" height="20" fill="none" xmlns="http://www.w3.org/2000/svg"><path d="M18.898 10.121a.694.694 0 00-.96-.245l-2.33 1.349-.592.347v3.229l.551.326c.02 0 .02.02.041.02l2.289 1.329a.629.629 0 00.388.123.689.689 0 00.695-.695v-2.738l.02-2.697a.535.535 0 00-.102-.348zm-5.272-.858a3.915 3.915 0 01-1.757.429 3.82 3.82 0 01-2.125-.633h-2.33a3.82 3.82 0 01-2.124.633 3.666 3.666 0 01-1.758-.43 1.6 1.6 0 00-.796 1.37v4.985c0 .92.756 1.655 1.655 1.655h8.397a1.66 1.66 0 001.655-1.655v-4.985a1.662 1.662 0 00-.817-1.37z" fill="#F57062"/><path fill-rule="evenodd" clip-rule="evenodd" d="M15.159 5.79a3.288 3.288 0 01-3.29 3.29 3.287 3.287 0 01-3.29-3.274A3.287 3.287 0 015.29 9.08C3.472 9.08 1.98 7.61 2 5.79a3.287 3.287 0 013.29-3.289 3.287 3.287 0 013.29 3.273A3.287 3.287 0 0111.868 2.5a3.288 3.288 0 013.29 3.29z" fill="#F57062"/><path d="M8.58 5.806l.39-.002h-.78l.39.002zM2 5.791l.39.004v-.004H2zm6.58-.017l-.39.002h.78l-.39-.002zm3.289 3.695a3.678 3.678 0 003.68-3.68h-.78c0 1.604-1.297 2.9-2.9 2.9v.78zm-3.68-3.66a3.677 3.677 0 003.68 3.66v-.78a2.897 2.897 0 01-2.9-2.885l-.78.004zM5.29 9.47a3.677 3.677 0 003.68-3.662l-.78-.004a2.897 2.897 0 01-2.9 2.886v.78zM1.61 5.786C1.587 7.827 3.26 9.47 5.29 9.47v-.78c-1.607 0-2.918-1.3-2.9-2.895l-.78-.009zm3.68-3.675a3.677 3.677 0 00-3.68 3.68h.78c0-1.604 1.297-2.9 2.9-2.9v-.78zm3.68 3.661a3.677 3.677 0 00-3.68-3.661v.78a2.897 2.897 0 012.9 2.885l.78-.004zm2.899-3.662a3.677 3.677 0 00-3.68 3.662l.78.004a2.897 2.897 0 012.9-2.886v-.78zm3.68 3.68a3.678 3.678 0 00-3.68-3.68v.78c1.603 0 2.9 1.297 2.9 2.9h.78z" fill="#FCFCFC"/></svg>