<svg width="25" height="29" fill="none" xmlns="http://www.w3.org/2000/svg"><path d="M12.996 14.4a6.704 6.704 0 01-6.7-6.7c0-3.697 3.003-6.7 6.7-6.7s6.7 3.003 6.7 6.7-3.003 6.7-6.7 6.7z" stroke="#fff" stroke-width="1.271" stroke-miterlimit="10"/><path d="M12.996 11.872c-1.364 0-2.476-1.005-2.476-2.237 0-.276.227-.49.49-.49a.5.5 0 01.49.49c0 .682.67 1.244 1.484 1.244s1.484-.55 1.484-1.244c0-.682-.67-1.245-1.484-1.245-1.364 0-2.476-1.005-2.476-2.237 0-1.232 1.113-2.237 2.476-2.237 1.364 0 2.477 1.005 2.477 2.237 0 .275-.227.49-.49.49a.493.493 0 01-.491-.49c0-.682-.67-1.244-1.484-1.244-.813 0-1.483.55-1.483 1.244 0 .682.67 1.244 1.483 1.244 1.364 0 2.477 1.005 2.477 2.238.012 1.232-1.1 2.237-2.477 2.237z" fill="#fff" stroke="#fff" stroke-width=".106"/><path d="M12.996 4.92a.493.493 0 01-.49-.49v-.993c0-.275.227-.49.49-.49.276 0 .49.227.49.49v.993a.485.485 0 01-.49.49zm0 7.945a.493.493 0 01-.49-.49V11.37c0-.276.227-.491.49-.491.276 0 .49.227.49.49v.994a.488.488 0 01-.49.502z" fill="#fff" stroke="#fff" stroke-width=".106"/><path d="M12.996 28a.48.48 0 01-.478-.479V14.84a.48.48 0 01.478-.478.48.48 0 01.479.478v12.682a.48.48 0 01-.479.48z" fill="#fff" stroke="#fff" stroke-width=".159"/><path d="M12.997 28a.43.43 0 01-.132-.024C9.623 26.66 6.991 24.4 5.232 21.432a.365.365 0 01.12-.49.365.365 0 01.49.119c1.651 2.787 4.128 4.929 7.155 6.197 3.027-1.268 5.503-3.398 7.154-6.197a.352.352 0 01.491-.12.352.352 0 01.12.49c-1.76 2.968-4.403 5.229-7.634 6.545a.43.43 0 01-.131.024z" fill="#fff" stroke="#fff" stroke-width=".424"/><path d="M17.555 26.935a9.46 9.46 0 01-2.094-.263.372.372 0 01-.275-.3c-.598-4.988 1.687-6.244 3.71-7.357 1.28-.706 2.38-1.304 2.631-2.8a.37.37 0 01.323-.299.38.38 0 01.371.227c.024.084.73 2.046.73 5.097 0 1.615-.478 3.015-1.376 4.032-.957 1.089-2.345 1.663-4.02 1.663zm-1.687-.897c.586.131 1.16.191 1.687.191 3.458 0 4.69-2.572 4.69-4.977 0-1.615-.203-2.92-.395-3.769-.574 1.041-1.603 1.604-2.596 2.154-1.878 1.029-3.817 2.094-3.386 6.4zm-7.43.897c-1.663 0-3.063-.574-4.02-1.663-.897-1.017-1.376-2.405-1.376-4.032 0-3.05.706-5.013.73-5.097a.34.34 0 01.37-.227.367.367 0 01.324.3c.251 1.495 1.352 2.093 2.632 2.799 2.022 1.113 4.307 2.369 3.709 7.358a.341.341 0 01-.275.299c-.73.18-1.436.263-2.094.263zm-4.283-9.464a17.36 17.36 0 00-.395 3.77c0 2.404 1.232 4.976 4.69 4.976.526 0 1.089-.06 1.687-.191.442-4.307-1.496-5.372-3.374-6.401-1.005-.538-2.034-1.113-2.608-2.154z" fill="#fff" stroke="#fff" stroke-width=".318"/><path d="M4.902 3.796a.545.545 0 01-.24-.06L3 2.779a.484.484 0 01-.18-.658.484.484 0 01.659-.18l1.663.957a.484.484 0 01.18.659.486.486 0 01-.42.239zM1.479 8.11A.48.48 0 011 7.63a.48.48 0 01.479-.478h1.914a.48.48 0 01.478.479.48.48 0 01-.478.478H1.479zm1.762 5.712a.486.486 0 01-.419-.239.477.477 0 01.18-.658l1.663-.957a.477.477 0 01.658.18.477.477 0 01-.18.657l-1.662.957a.639.639 0 01-.24.06zM20.82 3.796a.545.545 0 00.24-.06l1.662-.957a.484.484 0 00.18-.658.484.484 0 00-.658-.18l-1.663.957a.484.484 0 00-.18.659.488.488 0 00.419.239zm3.424 4.314a.48.48 0 00.478-.48.48.48 0 00-.478-.478h-1.915a.48.48 0 00-.478.479.48.48 0 00.478.478h1.915zm-1.764 5.712a.486.486 0 00.42-.24.477.477 0 00-.18-.657l-1.663-.957a.477.477 0 00-.658.18.477.477 0 00.18.657l1.662.957a.64.64 0 00.24.06z" fill="#fff" stroke="#fff" stroke-width=".127"/></svg>