<svg width="36" height="35" fill="none" xmlns="http://www.w3.org/2000/svg"><g clip-path="url(#clip0)"><path d="M19.2 33.299H4.6c-.7 0-1.2-.6-1.2-1.2v-30.2c0-.7.6-1.2 1.2-1.2H21m8 8v10.2m0-10.2h-6.8c-.7 0-1.2-.6-1.2-1.2v-6.8l8 8z" stroke="#C5BABA" stroke-width="1.44" stroke-miterlimit="22.926" stroke-linecap="round" stroke-linejoin="round"/><path d="M34.7 31.499v1.9H23.2v-1.9m1.4-4.1l4.3 3.6 4.3-3.6m-4.3 3.6v-8" stroke="#E60000" stroke-width="1.44" stroke-miterlimit="22.926" stroke-linecap="round" stroke-linejoin="round"/><path d="M17.4 19.399H1.8c-1 0-1.8-.8-1.8-1.8v-5.3c0-1 .8-1.8 1.8-1.8h15.6c1 0 1.8.8 1.8 1.8v5.3c0 1-.9 1.8-1.8 1.8z" fill="#E60000"/><path d="M2 17.899v-5.8h1.9c.7 0 1.2 0 1.4.1.3.1.6.3.8.6.2.3.3.7.3 1.1 0 .4-.1.7-.2.9-.1.2-.3.4-.5.6l-.6.3c-.3.1-.7.1-1.2.1h-.7v2.2H2v-.1zm1.2-4.8v1.6h.6c.5 0 .8 0 .9-.1.1-.1.3-.2.4-.3.1-.1.1-.3.1-.4 0-.2-.1-.4-.2-.5-.1-.1-.3-.2-.5-.3H3.2zm4.2-1h2.1c.5 0 .8 0 1.1.1.3.1.6.3.9.5.3.2.4.6.6.9.1.4.2.8.2 1.4 0 .5-.1.9-.2 1.2-.1.4-.4.8-.6 1-.2.2-.5.4-.8.5-.3.1-.6.1-1 .1H7.4v-5.7zm1.1 1v3.8h.9c.3 0 .6 0 .7-.1.2 0 .3-.1.5-.2s.2-.3.3-.6c.1-.2.1-.6.1-1s0-.8-.1-1l-.3-.6c-.1-.2-.3-.2-.5-.3-.2 0-.5-.1-1-.1h-.6v.1zm4.7 4.8v-5.8h4v1h-2.8v1.4h2.4v1h-2.4v2.5h-1.2v-.1z" fill="#fff"/></g><defs><clipPath id="clip0"><path fill="#fff" transform="translate(0 -.001)" d="M0 0h35.4v34.1H0z"/></clipPath></defs></svg>