<svg width="30" height="30" fill="none" xmlns="http://www.w3.org/2000/svg"><path d="M10.445 22.206c.218-.218.436-.563 1.126-.563h8.283c.627 0 4.068-3.449 4.504-3.942.423-.471 2.295-3.286 2.816-4.504-.324-.436-1.211-.802-2.253-.563-.992.233-1.583.943-2.252 2.252l-2.582 1.338" stroke="#544545" stroke-width="1.2" stroke-miterlimit="22.926" stroke-linecap="round" stroke-linejoin="round"/><path d="M13.661 18.265h5.067c2.252 0 2.252-2.816 0-2.816H15.35c-.471 0-1.351-1.126-2.09-1.126h-2.815c-.76 0-1.703.62-2.252 1.127-.845.844-2.33 2.252-2.33 2.252" stroke="#544545" stroke-width="1.2" stroke-miterlimit="22.926" stroke-linecap="round" stroke-linejoin="round"/><path d="M4.817 16.576L2 19.393l6.196 6.195 2.816-2.817-6.195-6.195zm-.003 2.814l1.126 1.127" stroke="#544545" stroke-width="1.2" stroke-miterlimit="22.926" stroke-linecap="round" stroke-linejoin="round"/><path d="M22.67 2.5l-5.63 5.63-2.253-2.252-2.252 2.252 4.504 4.504 7.883-7.882L22.669 2.5z" stroke="#E60000" stroke-width="1.2" stroke-miterlimit="22.926" stroke-linecap="round" stroke-linejoin="round"/></svg>