<svg width="30" height="30" fill="none" xmlns="http://www.w3.org/2000/svg"><path d="M9.384 15.02c-.66 0-1.248.513-1.248 1.247 0 .66.514 1.247 1.248 1.247.66 0 1.247-.513 1.247-1.247 0-.734-.587-1.247-1.247-1.247zm4.035-4.11c-.66 0-1.247.514-1.247 1.248 0 .66.513 1.247 1.247 1.247.734 0 1.247-.513 1.247-1.247-.073-.66-.587-1.247-1.247-1.247zm3.962 3.67c-.66 0-1.247.513-1.247 1.247 0 .66.514 1.247 1.247 1.247.66 0 1.247-.514 1.247-1.247 0-.734-.586-1.248-1.247-1.248z" stroke="#E60000" stroke-width="1.2" stroke-miterlimit="22.926"/><path d="M10.484 15.093l1.908-1.835m2.128-.073l1.907 1.761m2.935-5.063l2.935-.587-4.035 5.65m4.035-5.65l.367 2.862" stroke="#E60000" stroke-width="1.2" stroke-miterlimit="22.926" stroke-linecap="round" stroke-linejoin="round"/><path d="M4.76 5.408h21.28v15.188H4.76V5.408zM3 5.334h24.8M15.4 20.596V27.2m0-21.866V3.5m.073 20.47l6.824 4.33m-6.97-4.33L8.503 28.3" stroke="#544545" stroke-width="1.2" stroke-miterlimit="22.926" stroke-linecap="round" stroke-linejoin="round"/></svg>