<svg width="30" height="30" fill="none" xmlns="http://www.w3.org/2000/svg"><path d="M14.632 15.4a6.704 6.704 0 01-6.7-6.7c0-3.697 3.003-6.7 6.7-6.7s6.7 3.003 6.7 6.7-3.003 6.7-6.7 6.7z" stroke="#544545" stroke-width="1.2" stroke-miterlimit="10"/><path d="M14.632 12.872c-1.364 0-2.477-1.005-2.477-2.237 0-.275.227-.49.49-.49a.5.5 0 01.491.49c0 .682.67 1.244 1.484 1.244.813 0 1.483-.55 1.483-1.244 0-.682-.67-1.245-1.483-1.245-1.364 0-2.477-1.005-2.477-2.237 0-1.232 1.113-2.237 2.477-2.237 1.364 0 2.476 1.005 2.476 2.237 0 .275-.227.49-.49.49a.493.493 0 01-.49-.49c0-.682-.67-1.244-1.484-1.244s-1.484.55-1.484 1.244c0 .682.67 1.244 1.484 1.244 1.364 0 2.476 1.005 2.476 2.238.012 1.232-1.1 2.237-2.476 2.237z" fill="#E60000" stroke="#E60000" stroke-width=".1"/><path d="M14.632 5.92a.493.493 0 01-.49-.49v-.993c0-.275.226-.49.49-.49.275 0 .49.227.49.49v.993a.485.485 0 01-.49.49zm0 7.945a.493.493 0 01-.49-.49V12.37c0-.275.226-.49.49-.49.275 0 .49.226.49.49v.993a.488.488 0 01-.49.502z" fill="#E60000" stroke="#E60000" stroke-width=".1"/><path d="M14.632 29a.48.48 0 01-.479-.479V15.84a.48.48 0 01.479-.478.48.48 0 01.479.478v12.682a.48.48 0 01-.48.479z" fill="#544545" stroke="#544545" stroke-width=".15"/><path d="M14.632 29a.429.429 0 01-.132-.024c-3.242-1.316-5.874-3.577-7.633-6.544a.365.365 0 01.12-.49.365.365 0 01.49.119c1.651 2.787 4.128 4.929 7.155 6.197 3.027-1.268 5.504-3.398 7.155-6.197a.352.352 0 01.49-.12.352.352 0 01.12.49c-1.759 2.968-4.403 5.229-7.633 6.545a.429.429 0 01-.132.024z" fill="#544545" stroke="#544545" stroke-width=".4"/><path d="M19.19 27.935a9.46 9.46 0 01-2.093-.263.372.372 0 01-.276-.3c-.598-4.988 1.688-6.244 3.71-7.357 1.28-.706 2.38-1.304 2.632-2.8a.37.37 0 01.323-.299.38.38 0 01.37.227c.024.084.73 2.046.73 5.097 0 1.615-.478 3.015-1.375 4.032-.958 1.089-2.345 1.663-4.02 1.663zm-1.687-.897a7.809 7.809 0 001.688.191c3.457 0 4.69-2.572 4.69-4.977 0-1.615-.204-2.92-.395-3.769-.575 1.041-1.604 1.604-2.597 2.154-1.878 1.029-3.816 2.094-3.386 6.4zm-7.43.897c-1.663 0-3.063-.574-4.02-1.663-.897-1.017-1.376-2.405-1.376-4.032 0-3.05.706-5.013.73-5.097a.34.34 0 01.371-.227.367.367 0 01.323.3c.251 1.495 1.352 2.093 2.632 2.799 2.022 1.113 4.307 2.369 3.71 7.358a.342.342 0 01-.276.299c-.73.18-1.436.263-2.094.263zM5.79 18.471a17.36 17.36 0 00-.395 3.77c0 2.404 1.232 4.976 4.69 4.976.527 0 1.089-.06 1.687-.191.443-4.307-1.495-5.372-3.374-6.401-1.005-.538-2.034-1.113-2.608-2.154z" fill="#544545" stroke="#544545" stroke-width=".3"/><path d="M6.537 4.796a.545.545 0 01-.24-.06l-1.662-.957a.484.484 0 01-.18-.658.484.484 0 01.658-.18l1.663.957a.484.484 0 01.18.658.486.486 0 01-.42.24zM3.114 9.109a.48.48 0 01-.479-.479.48.48 0 01.479-.478h1.914a.48.48 0 01.479.478.48.48 0 01-.479.479H3.114zm1.762 5.713a.486.486 0 01-.418-.24.477.477 0 01.18-.657l1.662-.958a.477.477 0 01.658.18.477.477 0 01-.18.658l-1.662.957a.639.639 0 01-.24.06zm17.58-10.026a.544.544 0 00.239-.06l1.663-.957a.484.484 0 00.18-.658.484.484 0 00-.659-.18l-1.663.957a.484.484 0 00-.179.658c.096.156.251.24.419.24zm3.423 4.313a.48.48 0 00.478-.479.48.48 0 00-.478-.478h-1.914a.48.48 0 00-.479.478.48.48 0 00.479.479h1.914zm-1.763 5.713a.486.486 0 00.419-.24.477.477 0 00-.18-.657l-1.663-.958a.477.477 0 00-.658.18.477.477 0 00.18.658l1.663.957a.64.64 0 00.24.06z" fill="#544545" stroke="#544545" stroke-width=".12"/></svg>