<svg width="30" height="30" fill="none" xmlns="http://www.w3.org/2000/svg"><path d="M16.019 22.56A9.403 9.403 0 1011.78 4.238a9.403 9.403 0 004.24 18.322zm-1.854 1.872c5.952 0 10.771-4.82 10.771-10.772" stroke="#544545" stroke-width="1.2" stroke-miterlimit="22.926" stroke-linecap="round" stroke-linejoin="round"/><path d="M22.619 20.35l5.03 5.03c.474.474.474 1.264 0 1.764-.474.474-1.264.474-1.765 0l-5.03-5.03" stroke="#544545" stroke-width="1.2" stroke-miterlimit="22.926" stroke-linecap="round" stroke-linejoin="round"/><path d="M10.161 18.453a.508.508 0 00.264.08c.131 0 .29-.08.368-.185l6.48-8.823a.468.468 0 00-.106-.658.468.468 0 00-.658.105l-6.453 8.823c-.132.21-.105.5.105.658zm6.637-4.53c-1.211 0-2.212 1.027-2.212 2.318 0 1.29 1 2.317 2.212 2.317 1.212 0 2.213-1.027 2.213-2.317 0-1.29-.975-2.318-2.213-2.318zm0 3.687c-.71 0-1.29-.632-1.29-1.396 0-.763.58-1.395 1.29-1.395.711 0 1.29.632 1.29 1.395 0 .79-.579 1.396-1.29 1.396zm-6.242-4.214c1.212 0 2.213-1.027 2.213-2.317 0-1.29-1.001-2.318-2.213-2.318-1.211 0-2.212 1.027-2.212 2.318 0 1.29 1.001 2.317 2.213 2.317zm0-3.713c.712 0 1.291.632 1.291 1.396 0 .764-.58 1.396-1.29 1.396-.712 0-1.291-.632-1.291-1.396 0-.764.58-1.396 1.29-1.396z" fill="#E60000" stroke="#E60000" stroke-width=".4" stroke-miterlimit="22.926" stroke-linecap="round" stroke-linejoin="round"/></svg>