<svg width="46" height="33" fill="none" xmlns="http://www.w3.org/2000/svg"><path d="M43.278 6.274a5.3 5.3 0 00-3.688-3.68c-3.3-.882-16.57-.882-16.57-.882s-13.244-.021-16.58.882a5.299 5.299 0 00-3.679 3.68A55.002 55.002 0 001.84 16.52c-.006 3.42.303 6.834.922 10.198a5.32 5.32 0 003.68 3.687c3.3.882 16.58.882 16.58.882s13.236 0 16.57-.882a5.32 5.32 0 003.687-3.687c.607-3.362.903-6.78.882-10.198a55.42 55.42 0 00-.882-10.246z" stroke="#fff" stroke-width="1.834" stroke-miterlimit="22.926" stroke-linecap="round" stroke-linejoin="round"/><path d="M18.781 10.16v12.693l11.046-6.333-11.046-6.36z" stroke="#fff" stroke-width="1.834" stroke-miterlimit="22.926" stroke-linecap="round" stroke-linejoin="round"/></svg>